<svg width="52" height="37" viewBox="0 0 52 37" fill="none" xmlns="http://www.w3.org/2000/svg">
<path fill-rule="evenodd" clip-rule="evenodd" d="M51.96 27.7L50.1 29.4H49.62L50.72 27.46H51.96V27.7ZM50.62 34.28H50.22C49.72 34.88 49.16 35.36 48.62 35.36C48.06 35.36 47.78 35.02 47.78 34.28C47.78 33.98 47.82 33.66 47.88 33.38L51.14 32.3C51.78 30.78 51.02 30.12 50.12 30.12C48.58 30.12 46.82 32.82 46.82 34.98C46.82 36 47.3 36.56 48.06 36.56C48.94 36.54 49.86 35.68 50.62 34.28ZM49.5 31C49.94 31 50.32 31.34 50.12 32.12L48.1 32.66C48.42 31.7 49.02 31 49.5 31ZM43.14 31.04H44.22L42.5 35.76C42.34 36.16 42.56 36.56 42.98 36.56C44.2 36.56 45.66 35.52 46.22 34.04H45.92C45.48 34.66 44.52 35.34 43.8 35.46L45.38 31.04H47L47.2 30.36H45.62L46.22 28.66H45.6L44.48 30.36L43.14 30.54V31.04ZM41.64 30.14C41.86 30.14 42.16 30.38 42.02 30.82L40.08 35.52C40.58 35.44 41.1 34.96 41.4 34.52H41.72C41.26 35.7 40.22 36.56 39.32 36.56C39.1 36.56 38.78 36.32 38.94 35.88L40.74 31.18C40.24 31.26 39.72 31.74 39.42 32.18H39.12C39.58 30.98 40.7 30.14 41.64 30.14ZM42.2 28.94C42.6 28.94 42.94 28.62 42.94 28.2C42.94 27.8 42.6 27.46 42.2 27.46C41.78 27.46 41.46 27.8 41.46 28.2C41.46 28.6 41.8 28.94 42.2 28.94ZM33.46 32.84C33.9 31.88 33.74 31.44 33.46 31.44C33.22 31.44 32.94 31.7 32.66 32.18H32.36C32.82 31.16 33.42 30.14 34.08 30.14C34.64 30.14 34.84 30.7 34.84 31.32V32.2C34.931 32.0941 35.0195 31.9902 35.106 31.8887L35.1061 31.8886C35.951 30.897 36.5961 30.14 37.34 30.14C37.92 30.14 38.22 30.5 38.22 31.04C38.22 31.36 38.12 31.76 37.9 32.18L36.24 35.52C36.74 35.44 37.26 34.96 37.56 34.52H37.86C37.4 35.72 36.28 36.56 35.34 36.56C34.92 36.56 34.68 36.12 34.86 35.76L36.78 32.06C37 31.64 37.04 31.36 36.7 31.36C36.24 31.36 35.16 32.12 34.58 32.82L33.32 36.14C33.18 36.48 33.04 36.56 32.72 36.56C32.2 36.56 31.94 36.22 32.18 35.68L33.46 32.84ZM32.16 31.56C32.38 30.8 32.26 30.12 31.68 30.12C30.9567 30.12 30.7302 30.5977 30.0292 32.0762L29.98 32.18V31.3C29.98 30.68 29.78 30.12 29.22 30.12C28.56 30.12 27.96 31.14 27.5 32.16H27.8C28.12 31.7 28.42 31.42 28.66 31.42C28.94 31.42 29.1 31.86 28.66 32.82L27.38 35.66C27.14 36.2 27.4 36.54 27.92 36.54C28.24 36.54 28.38 36.46 28.52 36.12L29.78 32.8C30.14 32.36 30.46 31.98 30.86 31.56H32.16ZM25.84 32.12C26.04 31.34 25.66 31 25.22 31C24.74 31 24.14 31.7 23.82 32.66L25.84 32.12ZM26.34 34.28H25.94C25.44 34.88 24.88 35.36 24.34 35.36C23.78 35.36 23.5 35.02 23.5 34.28C23.5 33.98 23.54 33.66 23.6 33.38L26.86 32.3C27.5 30.78 26.74 30.12 25.84 30.12C24.3 30.12 22.54 32.82 22.54 34.98C22.54 36 23.02 36.56 23.78 36.56C24.66 36.54 25.58 35.68 26.34 34.28ZM19.94 31.04H18.86V30.54L20.2 30.36L21.32 28.66H21.94L21.34 30.36H22.92L22.72 31.04H21.1L19.52 35.46C20.24 35.34 21.2 34.66 21.64 34.04H21.94C21.38 35.52 19.92 36.56 18.7 36.56C18.28 36.56 18.06 36.16 18.22 35.76L19.94 31.04ZM13.14 34.7C13.14 33.24 14.76 31.28 15.66 31.28C15.86 31.28 16.06 31.3 16.22 31.36L15.28 33.88C14.74 34.54 13.9 35.34 13.5 35.34C13.28 35.34 13.14 35.14 13.14 34.7ZM17.6 29.82L18.1 29.86L16.36 33.86C15.94 34.82 16.12 35.26 16.36 35.26C16.6 35.26 16.9 34.98 17.22 34.52H17.52C17.06 35.54 16.46 36.56 15.8 36.56C15.24 36.56 14.9 35.96 15 34.88L15.04 34.5L14.9311 34.6521C14.2147 35.6537 13.5664 36.56 12.9 36.56C12.32 36.56 12.02 36.2 12.02 35.66C12.02 33.34 14.56 30.38 16.94 30.38H17.04L17.6 29.82ZM13.02 31.56C13.24 30.8 13.12 30.12 12.54 30.12C11.8167 30.12 11.5902 30.5977 10.8892 32.0761L10.84 32.18V31.3C10.84 30.68 10.64 30.12 10.08 30.12C9.42 30.12 8.82 31.14 8.36 32.16H8.66C8.98 31.7 9.28 31.42 9.5 31.42C9.78 31.42 9.94 31.86 9.5 32.82L8.22 35.68C7.98 36.22 8.24 36.56 8.76 36.56C9.08 36.56 9.22 36.48 9.36 36.14L10.62 32.82C10.98 32.38 11.3 32 11.7 31.58H13.02V31.56ZM4.78 35.96L4.66 36.32H0L0.12 35.94C1.56 35.68 1.8 35.56 2.4 33.94L3.7 30.46C4.28 28.84 4.16 28.72 2.9 28.46L3.02 28.1H9.08L8.72 30.04H8.28C8.28 28.88 8.16 28.58 7.06 28.58H6.78C5.7 28.58 5.56 28.74 5.26 29.58L4.4 31.92H5.66C6.5 31.92 6.82 31.4 7.2 30.72H7.64L6.6 33.56H6.16C6.26 32.7 6.26 32.36 5.48 32.36H4.22L3.64 33.96C3.01304 35.6253 3.1922 35.6593 4.68515 35.942C4.71619 35.9479 4.74781 35.9538 4.78 35.96Z" fill="#1E1E1E"/>
<path fill-rule="evenodd" clip-rule="evenodd" d="M8.74 12.4L6.88 13.74V13.76H6.4L7.5 12.16H8.74V12.4ZM21.74 21.78L24.72 13.86L24.62 13.74L22.56 13.98V14.22L22.96 14.52C23.3015 14.7856 23.2111 15.0332 22.9277 15.8091L22.88 15.94L20.6 22.02C20.42 22.38 20.66 22.82 21.08 22.82C22.02 22.82 23.02 21.96 23.48 20.78H23.18C22.86 21.22 22.22 21.7 21.74 21.78ZM35.4 15.68L37.26 13.98V13.74H36.02L34.92 15.68H35.4ZM35.52 20.54H35.92C35.18 21.96 34.26 22.82 33.38 22.82C32.62 22.82 32.14 22.26 32.14 21.24C32.14 19.08 33.9 16.38 35.44 16.38C36.32 16.38 37.1 17.04 36.46 18.56L33.18 19.64C33.12 19.92 33.08 20.24 33.08 20.54C33.08 21.28 33.36 21.62 33.92 21.62C34.46 21.62 35.02 21.14 35.52 20.54ZM35.42 18.38C35.62 17.62 35.24 17.28 34.8 17.28C34.34 17.28 33.74 17.98 33.4 18.92L35.42 18.38ZM29.54 17.32H28.46V16.82L29.8 16.64L30.92 14.94H31.54L30.94 16.64H32.52L32.32 17.32H30.7L29.12 21.74C29.84 21.62 30.8 20.94 31.24 20.32H31.54C30.98 21.8 29.52 22.84 28.3 22.84C27.88 22.84 27.66 22.44 27.82 22.04L29.54 17.32ZM27.34 17.08C27.46 16.64 27.18 16.4 26.94 16.4C26 16.4 24.88 17.26 24.42 18.44H24.72C25.02 18 25.54 17.52 26.04 17.44L24.24 22.14C24.08 22.58 24.4 22.82 24.62 22.82C25.52 22.82 26.56 21.96 27.02 20.78H26.72C26.42 21.22 25.9 21.7 25.4 21.78L27.34 17.08ZM28.26 14.48C28.26 14.88 27.92 15.22 27.52 15.22C27.12 15.22 26.78 14.88 26.78 14.48C26.78 14.08 27.1 13.74 27.52 13.74C27.92 13.74 28.26 14.08 28.26 14.48ZM18.16 17.56C17.26 17.56 15.64 19.52 15.64 20.98C15.64 21.42 15.78 21.62 16.02 21.62C16.4 21.62 17.24 20.82 17.78 20.16L18.72 17.64C18.54 17.58 18.36 17.56 18.16 17.56ZM20.6 16.14L20.1 16.1L19.54 16.66H19.44C17.06 16.66 14.52 19.62 14.52 21.94C14.52 22.48 14.82 22.84 15.4 22.84C16.0664 22.84 16.7147 21.9337 17.4311 20.9322L17.54 20.78L17.5 21.16C17.4 22.24 17.74 22.84 18.3 22.84C18.96 22.84 19.56 21.82 20.02 20.8H19.72C19.4 21.26 19.1 21.54 18.86 21.54C18.62 21.54 18.44 21.1 18.86 20.14L20.6 16.14ZM10.52 22.62C9.66 22.96 9.06 23.36 9.06 23.98C9.06 24.56 9.6 24.8 10.72 24.8C12.22 24.8 13.04 24.36 13.04 23.78C13.04 23.52 12.7 23.4 11.8 23.1C11.22 22.92 10.8 22.76 10.52 22.62ZM11.52 20.16C11.12 20.16 10.98 19.82 10.98 19.46C10.98 18.3 11.54 16.86 12.44 16.86C12.84 16.86 12.98 17.2 12.98 17.56C12.96 18.74 12.4 20.16 11.52 20.16ZM12.28 22.04C13.38 22.38 14.06 22.64 14.06 23.4C14.06 24.38 12.26 25.54 10.08 25.52C8.82 25.52 7.74 25.18 7.74 24.36C7.74 23.58 8.46 22.94 10.22 22.42C9.98 22.26 9.88 22.06 9.88 21.78C9.88 21.3 10.32 20.92 11.08 20.56C10.34 20.46 9.86 19.9 9.86 19.08C9.86 17.82 10.9 16.38 12.54 16.38C12.88 16.38 13.18 16.46 13.42 16.62H15.22L15.02 17.3H13.96C14.02 17.48 14.06 17.68 14.06 17.9C14.06 19.12 13.08 20.52 11.52 20.6C11.12 20.82 10.92 21.12 10.92 21.36C10.92 21.6425 11.2472 21.7379 11.9702 21.949L11.9705 21.9491C12.0666 21.9771 12.1697 22.0072 12.28 22.04ZM5.94 18.62C6.72 18.62 6.74 18.96 6.62 19.82H7.06L8.1 16.98H7.66C7.28 17.66 6.96 18.18 6.12 18.18H4.4L5.24 15.84C5.54 15 5.68 14.84 6.76 14.84H7.52C8.62 14.84 8.74 15.14 8.74 16.3H9.18L9.54 14.36H3.02L2.9 14.72C4.16 14.98 4.28 15.1 3.7 16.72L2.4 20.22C1.8 21.84 1.56 21.96 0.1 22.22L0 22.6H7.24L8.54 20.54H8.04C7.2 21.36 6.36 22.12 4.72 22.12C2.91612 22.12 2.94825 22.0318 3.4895 20.5449C3.52434 20.4492 3.56129 20.3477 3.6 20.24L4.2 18.64H5.94V18.62Z" fill="#1E1E1E"/>
<path fill-rule="evenodd" clip-rule="evenodd" d="M11.92 1.48C12.32 1.48 12.66 1.14 12.66 0.74C12.66 0.34 12.32 0 11.92 0C11.5 0 11.18 0.34 11.18 0.74C11.18 1.16 11.5 1.48 11.92 1.48ZM13.66 9.08C15.22 9.1 17.84 6.22 17.84 4C17.84 3.04 17.6 2.68 16.92 2.68C16.08 2.68 15.3 3.58 14.52 4.66L16.2 0.16L16.1 0.02L14.04 0.26V0.5L14.44 0.8C14.7883 1.07088 14.6873 1.34175 14.3906 2.13775L14.36 2.22L12.54 6.98C12.38 7.38 12.2 7.86 12.2 7.98C12.2 8.54 12.96 9.08 13.66 9.08ZM35.18 1.96L37.04 0.26V0.02H35.8L34.7 1.96H35.18ZM35.3 6.82H35.7C34.94 8.24 34.02 9.1 33.14 9.08C32.38 9.08 31.9 8.54 31.9 7.52C31.9 5.36 33.66 2.66 35.2 2.66C36.08 2.66 36.86 3.32 36.22 4.84L32.96 5.92C32.9 6.2 32.86 6.52 32.86 6.82C32.86 7.56 33.14 7.9 33.7 7.9C34.24 7.9 34.8 7.42 35.3 6.82ZM35.2 4.66C35.4 3.9 35.02 3.56 34.58 3.56C34.1 3.56 33.5 4.26 33.18 5.2L35.2 4.66ZM29.3 3.6H28.22V3.1L29.56 2.92L30.68 1.22H31.3L30.7 2.92H32.28L32.08 3.6H30.46L28.88 8.02C29.6 7.9 30.56 7.22 31 6.6H31.3C30.74 8.08 29.28 9.12 28.06 9.12C27.64 9.12 27.42 8.72 27.58 8.32L29.3 3.6ZM27.66 4.12C27.88 3.36 27.76 2.68 27.18 2.68C26.4567 2.68 26.2302 3.15773 25.5292 4.63618L25.48 4.74V3.86C25.48 3.24 25.28 2.68 24.72 2.68C24.06 2.68 23.46 3.7 23 4.72H23.3C23.62 4.26 23.92 3.98 24.14 3.98C24.42 3.98 24.58 4.42 24.14 5.38L22.86 8.22C22.62 8.76 22.88 9.1 23.4 9.1C23.72 9.1 23.86 9.02 24 8.68L25.26 5.36C25.62 4.92 25.94 4.54 26.34 4.12H27.66ZM21.32 4.66C21.52 3.9 21.14 3.56 20.7 3.56C20.22 3.56 19.64 4.26 19.3 5.2L21.32 4.66ZM21.82 6.82H21.42C20.92 7.42 20.36 7.9 19.82 7.9C19.26 7.9 18.98 7.56 18.98 6.82C18.98 6.52 19.02 6.2 19.08 5.92L22.34 4.84C22.98 3.32 22.22 2.66 21.32 2.66C19.78 2.66 18.02 5.36 18.02 7.52C18.02 8.54 18.5 9.08 19.26 9.08C20.14 9.1 21.06 8.24 21.82 6.82ZM13.42 7.58C13.42 7.84 13.88 8.14 14.2 8.14C15.5 8.14 16.72 5.8 16.7 4.5C16.7 4.06 16.48 3.88 16.18 3.88C15.7 3.88 14.82 4.6 14.26 5.28L13.74 6.68C13.56 7.14 13.42 7.5 13.42 7.58ZM11.32 2.68C11.56 2.68 11.84 2.92 11.72 3.36L9.8 8.06C10.3 7.98 10.82 7.5 11.12 7.06H11.42C10.96 8.24 9.92 9.1 9.02 9.1C8.78 9.1 8.46 8.86 8.62 8.42L10.42 3.72C9.92 3.8 9.4 4.28 9.1 4.72H8.8C9.26 3.54 10.38 2.68 11.32 2.68ZM3.02 0.6H7.32L7.2 0.98C5.74 1.24 5.5 1.36 4.9 2.98L3.62 6.5C3 8.18 3.16 8.38 4.26 8.38C5.61904 8.38 6.51018 7.39221 7.28831 6.5297C7.34611 6.46562 7.4033 6.40224 7.46 6.34H7.96L6.54 8.86H0L0.12 8.5C1.56 8.24 1.8 8.12 2.4 6.5L3.7 2.96C4.28 1.34 4.16 1.22 2.9 0.96L3.02 0.6Z" fill="#1E1E1E"/>
</svg>
