<svg width="57" height="56" viewBox="0 0 57 56" fill="none" xmlns="http://www.w3.org/2000/svg">
<path d="M35.8234 22.4243L22.9504 16.2775C22.0859 15.8647 20.9465 15.6582 19.8068 15.6582C18.6671 15.6582 17.5276 15.8647 16.6631 16.2775L3.79018 22.4243C2.0611 23.2501 0.646484 25.4935 0.646484 27.4098V42.2161C0.646484 44.1324 2.00942 46.4749 3.67557 47.4215L16.7777 54.8666C17.6107 55.3398 18.7088 55.5765 19.8068 55.5765C20.9048 55.5765 22.0028 55.3398 22.8359 54.8666L35.9379 47.4215C37.6041 46.4749 38.967 44.1324 38.967 42.2161V27.4098C38.967 25.4935 37.5525 23.2501 35.8234 22.4243ZM36.3943 26.2291L20.6777 34.8892V53.1034C20.6777 53.5845 20.2877 53.9745 19.8068 53.9745C19.3258 53.9745 18.9358 53.5845 18.9358 53.1034V34.9553L3.09319 26.1009C2.67282 25.8667 2.52186 25.3363 2.75575 24.9161C2.98985 24.4961 3.51993 24.3453 3.94029 24.5786L19.7472 33.4131L35.5518 24.7043C35.9735 24.4721 36.5029 24.6245 36.7353 25.0454C36.9679 25.4665 36.8153 25.9964 36.3943 26.2291Z" fill="url(#paint0_linear)"/>
<path d="M46.8614 5.04716C48.6677 5.68623 50.6685 7.68717 51.3072 9.49377L56.0947 23.0311C56.7335 24.8377 56.1479 27.4245 54.7931 28.7797L44.2586 39.3159C43.4066 40.168 42.0545 40.7509 40.7088 40.9451V27.4098C40.7088 26.8699 40.6244 26.3166 40.4762 25.7685L39.5196 23.5976C38.876 22.5722 38.0131 21.6847 37.0389 21.1035C39.9383 21.9284 53.7425 25.8544 53.8135 25.8544C54.1924 25.8544 54.5411 25.605 54.6504 25.2224C54.7826 24.7599 54.5147 24.2777 54.0523 24.1457L37.1018 19.3105L32.3258 2.24406C32.1954 1.78108 31.7155 1.51205 31.2512 1.64223C30.7883 1.77281 30.5189 2.25403 30.6494 2.717L35.3783 19.6157L34.9307 20.0676L32.663 18.9848L29.1974 17.33L23.701 14.7055L20.1928 13.9255L20.1638 13.9245C20.0451 13.9203 19.9265 13.9161 19.8067 13.9161C18.3613 13.9161 16.9783 14.1964 15.9126 14.7053L15.5654 14.8712C15.8412 13.7983 16.357 12.7845 17.0444 12.097L27.5788 1.56074C28.5612 0.578261 30.1912 0 31.7017 0C32.2745 0 32.8297 0.0831874 33.3264 0.258839L46.8614 5.04716Z" fill="url(#paint1_linear)"/>
<path d="M27.7347 13.4191C27.5908 13.2764 27.4169 13.1734 27.2191 13.116C26.8863 13.0195 26.4919 13.0542 26.0783 13.2163C25.6096 13.4 24.8136 13.8703 23.9145 15.0695L24.2259 15.194C24.9822 14.2373 25.6381 13.852 26.033 13.6971C26.7451 13.418 27.3688 13.5851 27.661 14.1332L27.6613 14.1338L27.6616 14.1344C27.9343 14.6341 28.0996 15.1672 28.153 15.7189C28.1857 16.0577 28.1755 16.4041 28.1235 16.7513L24.2259 15.194L23.9145 15.0695L22.3693 14.4522C22.4864 14.185 22.6058 13.9431 22.7206 13.7288C23.3961 12.4673 24.3101 11.4094 25.228 10.8263C25.8753 10.4152 26.4784 10.2774 26.926 10.4382C27.4117 10.6128 27.7095 11.1314 27.7875 11.938C27.828 12.3573 27.8101 12.8539 27.7347 13.4191Z" fill="white"/>
<path d="M29.4589 12.6575C29.6279 12.4344 29.7874 12.1953 29.9368 11.9403C30.01 11.8153 30.0169 11.6664 29.9522 11.6076C29.8875 11.5487 29.7757 11.6023 29.7026 11.7273C29.2534 12.4941 28.6982 13.1021 28.0498 13.5385C28.0364 13.6256 28.022 13.7137 28.0062 13.8034C28.0356 13.8593 28.0635 13.9156 28.0904 13.9723C28.5108 13.6882 28.8968 13.3378 29.2459 12.9239C29.0031 14.33 29.5686 15.6999 30.4413 15.3636C30.7924 14.3465 30.2774 12.6553 29.4589 12.6575Z" fill="white"/>
<path d="M42.5235 29.573C42.7547 29.6191 42.9549 29.6971 43.1146 29.8053C43.383 29.9872 43.5314 30.251 43.5435 30.5681C43.5629 31.0721 43.2465 32.1699 40.9093 33.8598C40.8547 33.8993 40.7895 33.9298 40.7268 33.9479L40.7268 33.6516C42.7549 32.154 43.0341 31.195 43.017 30.7522C42.9961 30.2063 42.5085 29.8608 41.7448 29.8506L41.7431 29.8506C41.4005 29.844 41.0611 29.8565 40.727 29.8879L40.7268 33.6516L40.7268 33.9479L40.7267 34.8719C42.5296 34.2424 43.7855 33.4646 44.5585 32.8832C45.6746 32.0437 46.4451 31.1172 46.6724 30.3414C46.8327 29.7943 46.7026 29.3637 46.3061 29.129C45.8759 28.8744 45.143 28.851 44.1865 29.0613C43.6892 29.1706 43.1318 29.3423 42.5235 29.573Z" fill="white"/>
<path d="M43.1607 27.6864C42.9412 27.8644 42.7447 28.0436 42.571 28.2238C42.3463 27.9195 41.5213 27.8643 40.6743 27.9794L40.6743 28.8953C41.213 28.8266 41.8147 28.6731 42.3687 28.4461C42.0633 28.8032 41.8477 29.1634 41.7241 29.5242C41.8015 29.5232 41.8791 29.5229 41.9567 29.5237C42.0514 29.4846 42.145 29.447 42.2378 29.4103C42.4265 28.8543 42.8551 28.3027 43.5151 27.7677C43.6227 27.6805 43.6305 27.5917 43.5326 27.5692C43.4348 27.5468 43.2683 27.5993 43.1607 27.6864Z" fill="white"/>
<path d="M41.3852 10.4346C41.4661 10.2504 41.588 10.0954 41.7446 9.97446C41.2074 9.82891 40.7292 9.74789 40.3183 9.73335C39.5278 9.70537 38.9879 9.92718 38.7568 10.3748C38.5437 10.7875 38.5998 11.3888 38.9147 12.0681C39.3611 13.0313 40.2676 14.0515 41.4016 14.8671C42.3199 15.5275 43.8277 16.3697 45.8052 16.6409C47.5647 16.502 48.2184 15.7363 48.4566 15.1169C48.751 14.3519 48.5875 13.358 48.0081 12.39C47.5996 11.7074 47.0068 11.0871 46.3389 10.6432C45.6144 10.1618 44.8137 9.89249 44.0234 9.86451C43.4827 9.84537 42.9457 9.937 42.4273 10.1369C42.4271 10.137 42.4269 10.137 42.4267 10.1371C42.4264 10.1372 42.4263 10.1373 42.4261 10.1374C41.8584 10.3498 41.6167 10.9321 41.7955 11.6571C41.9436 12.2575 42.5144 13.4867 44.6738 14.9733C44.7913 15.0542 44.843 15.1712 44.7893 15.2348C44.7653 15.2632 44.7242 15.2761 44.6755 15.2743C44.6156 15.2722 44.5443 15.2479 44.4794 15.2033C42.129 13.5852 41.5011 12.2208 41.3361 11.5516C41.2322 11.1305 41.2492 10.7443 41.3852 10.4346Z" fill="white"/>
<path d="M41.2284 8.20821C41.0342 8.01597 40.8234 7.83094 40.5957 7.65366C40.4842 7.56679 40.341 7.54103 40.2758 7.59611C40.2106 7.65118 40.248 7.76624 40.3596 7.85308C41.044 8.38617 41.5611 9.00147 41.9003 9.68498C41.9828 9.70916 42.0663 9.7344 42.151 9.76118C42.2088 9.73991 42.2669 9.72013 42.3252 9.70133C42.1042 9.25804 41.8146 8.83945 41.4589 8.4485C42.7883 8.86386 44.1862 8.49214 43.9726 7.60436C43.0335 7.13414 41.3312 7.41567 41.2284 8.20821Z" fill="white"/>
<path d="M16.7278 23.7765C16.6991 23.5774 16.7207 23.3813 16.7896 23.1959C16.2567 23.3564 15.808 23.5405 15.4515 23.7455C14.7658 24.1398 14.4247 24.6136 14.4652 25.1158C14.5025 25.5788 14.868 26.0596 15.4943 26.4697C16.3825 27.0512 17.6912 27.4379 19.0849 27.5305C20.2134 27.6055 21.9384 27.523 23.7603 26.7074C25.1803 25.659 25.3304 24.6634 25.2052 24.0116C25.0507 23.2065 24.3865 22.4492 23.383 21.9339C22.6754 21.5706 21.8443 21.3575 21.0428 21.334C20.1733 21.3084 19.3513 21.5033 18.6657 21.8974C18.1967 22.1671 17.7893 22.5289 17.4549 22.9727C17.4548 22.9729 17.4547 22.9731 17.4545 22.9732C17.4544 22.9734 17.4543 22.9736 17.4541 22.9738C17.0846 23.4543 17.1873 24.0764 17.7223 24.5973C18.1654 25.0286 19.2997 25.7702 21.9184 25.8902C22.0609 25.8967 22.1667 25.9687 22.1547 26.051C22.1493 26.0879 22.1212 26.1206 22.079 26.1448C22.027 26.1747 21.9537 26.1918 21.875 26.1882C19.0246 26.0577 17.7705 25.2315 17.2766 24.7507C16.9658 24.4482 16.776 24.1113 16.7278 23.7765Z" fill="white"/>
<path d="M15.4179 21.9701C15.1514 21.9096 14.8746 21.864 14.5877 21.8339C14.4471 21.8192 14.312 21.873 14.2857 21.9543C14.2595 22.0355 14.3521 22.1133 14.4927 22.1281C15.3554 22.2187 16.1196 22.4675 16.7689 22.8683C16.8517 22.8452 16.9358 22.8225 17.0219 22.8005C17.0597 22.7518 17.0986 22.7043 17.1382 22.6575C16.7163 22.3981 16.2491 22.1959 15.7406 22.0521C17.0885 21.7017 18.0786 20.6469 17.428 20.0062C16.3823 20.1037 15.0862 21.243 15.4179 21.9701Z" fill="white"/>
<path d="M8.80155 37.5003C8.96389 37.3734 9.14915 37.2927 9.34908 37.2596C8.93506 36.8676 8.54297 36.5624 8.1793 36.3498C7.47978 35.941 6.88504 35.879 6.45931 36.1707C6.06689 36.4396 5.82568 37.0094 5.7801 37.7749C5.71545 38.8607 6.03815 40.221 6.66541 41.5072C7.17332 42.5487 8.12488 44.0402 9.77729 45.2446C11.432 45.9733 12.3933 45.5997 12.9088 45.1566C13.5456 44.6092 13.8805 43.6332 13.8275 42.4787C13.7901 41.6646 13.5564 40.8173 13.1692 40.0927C12.7492 39.3067 12.1576 38.6751 11.4582 38.2664C10.9797 37.9867 10.4508 37.8087 9.88611 37.7375C9.88589 37.7374 9.88569 37.7374 9.88547 37.7373C9.88521 37.7373 9.885 37.7373 9.88478 37.7373C9.26954 37.6534 8.76897 38.0615 8.5785 38.8023C8.42072 39.4159 8.33919 40.8019 9.56586 43.1911C9.63259 43.3211 9.62248 43.4518 9.54319 43.483C9.5077 43.497 9.46437 43.4887 9.42133 43.4635C9.36827 43.4325 9.31571 43.376 9.27885 43.3042C7.94365 40.7037 8.03934 39.1681 8.2152 38.4842C8.32581 38.0539 8.52856 37.7137 8.80155 37.5003Z" fill="white"/>
<path d="M9.74045 35.4159C9.65857 35.1483 9.55811 34.879 9.43881 34.6086C9.38033 34.4761 9.26362 34.3833 9.17807 34.4014C9.09252 34.4194 9.0705 34.5414 9.12897 34.6739C9.48771 35.487 9.65567 36.2931 9.62997 37.0744C9.69267 37.1362 9.7557 37.1995 9.81914 37.2648C9.88162 37.2736 9.94365 37.284 10.0054 37.2953C10.0211 36.7881 9.96296 36.2699 9.8318 35.7446C10.8295 36.7645 12.271 37.1076 12.5092 36.203C11.8902 35.323 10.2178 34.7508 9.74045 35.4159Z" fill="white"/>
<path d="M31.2183 38.2721C31.0306 38.2282 30.8157 38.2268 30.5833 38.2665C31.0689 37.8336 31.5282 37.4739 31.9535 37.194C32.7716 36.6556 33.4644 36.4154 33.9572 36.4994C34.4114 36.5768 34.6867 36.9324 34.7325 37.5006C34.7975 38.3065 34.409 39.4472 33.6667 40.6303C33.0656 41.5882 31.9439 43.033 30.0092 44.4865C28.0762 45.5785 26.961 45.606 26.3651 45.4358C25.6291 45.2257 25.2486 44.591 25.3212 43.6946C25.3724 43.0626 25.6525 42.3414 26.11 41.6639C26.6063 40.929 27.3009 40.2561 28.1189 39.7177C28.6784 39.3495 29.2957 39.0423 29.9537 38.8047C29.954 38.8046 29.9542 38.8045 29.9544 38.8044C29.9547 38.8043 29.955 38.8043 29.9552 38.8042C30.6721 38.5406 31.2509 38.6889 31.4656 39.1913C31.6434 39.6073 31.7252 40.6364 30.2748 42.854C30.1959 42.9747 30.2064 43.0709 30.2984 43.069C30.3396 43.0681 30.3901 43.0477 30.4404 43.0146C30.5025 42.9737 30.5642 42.9136 30.6077 42.847C32.1865 40.4332 32.0897 39.2948 31.8915 38.8311C31.7668 38.5393 31.534 38.346 31.2183 38.2721Z" fill="white"/>
<path d="M30.1452 36.9893C30.2431 36.7589 30.3625 36.5212 30.504 36.2766C30.5733 36.1567 30.71 36.0482 30.8094 36.0341C30.9088 36.0201 30.9333 36.1059 30.864 36.2257C30.4387 36.9614 30.2356 37.6298 30.2581 38.2164C30.1845 38.2839 30.1106 38.3525 30.0361 38.4228C29.9633 38.4498 29.891 38.4779 29.819 38.5065C29.8055 38.1254 29.8781 37.7119 30.0358 37.2692C28.8648 38.3698 27.1837 39.0989 26.9151 38.4873C27.6439 37.6162 29.5959 36.6377 30.1452 36.9893Z" fill="white"/>
<defs>
<linearGradient id="paint0_linear" x1="-3.45929" y1="155.372" x2="16.7989" y2="159.272" gradientUnits="userSpaceOnUse">
<stop stop-color="#C80352"/>
<stop offset="1" stop-color="#F1732C"/>
</linearGradient>
<linearGradient id="paint1_linear" x1="11.1953" y1="143.308" x2="32.6989" y2="147.603" gradientUnits="userSpaceOnUse">
<stop stop-color="#C80352"/>
<stop offset="1" stop-color="#F1732C"/>
</linearGradient>
</defs>
</svg>
