<svg width="88" height="33" viewBox="0 0 88 33" fill="none" xmlns="http://www.w3.org/2000/svg">
<path d="M28.3667 28.0897C28.377 28.0897 28.3873 28.0794 28.3873 28.0794C28.4698 28.0382 28.5523 27.9867 28.6245 27.9249C28.6142 27.9249 28.6039 27.9249 28.5935 27.9146C28.5214 27.9661 28.4389 28.0279 28.3667 28.0897Z" fill="#1F356C"/>
<path d="M40.0251 24.2271L39.9135 24.3226C39.9773 24.3067 40.0251 24.2908 40.0251 24.2271Z" fill="#1F356C"/>
<path fill-rule="evenodd" clip-rule="evenodd" d="M36.3166 28.2646C36.6569 27.9247 36.9972 27.5641 37.3375 27.1932H37.3271C37.9664 26.472 38.5851 25.7818 39.3275 25.1534C39.5544 24.9473 39.7709 24.7722 39.9772 24.6279C40.0075 24.5977 40.0229 24.5526 40.0381 24.5084C40.0539 24.4624 40.0693 24.4173 40.1009 24.391C39.9539 24.4467 39.8368 24.5348 39.719 24.6234C39.5971 24.715 39.4745 24.8073 39.3172 24.8649C39.2554 24.8649 39.1935 24.8031 39.2554 24.7413C39.4719 24.5867 39.6884 24.4219 39.8947 24.2571H39.8534C39.7916 24.2571 39.7916 24.1952 39.7916 24.1334C39.0239 24.0123 38.4344 24.5338 37.9066 25.0006L37.8736 25.0297C37.7915 25.0708 37.7139 25.0301 37.6529 24.9981C37.622 24.9819 37.5954 24.9679 37.5746 24.9679C37.1077 25.1234 36.705 25.4101 36.2996 25.6987C35.9262 25.9646 35.5506 26.232 35.1205 26.3999V26.2763C34.9745 26.3263 34.8301 26.3916 34.6854 26.4569C34.4725 26.5531 34.2588 26.6496 34.0378 26.6987C33.6342 26.7917 33.2599 26.7797 32.8971 26.7681C32.7779 26.7643 32.66 26.7605 32.5427 26.7605C31.8822 26.8256 31.2302 26.9661 30.5789 27.1064L30.5789 27.1064L30.367 27.152C30.3567 27.1571 30.3463 27.1597 30.336 27.1623C30.3257 27.1649 30.3154 27.1674 30.3051 27.1726C29.9133 27.2756 29.5524 27.4199 29.1915 27.6259L29.1502 27.6465C29.1421 27.6573 29.134 27.6674 29.1261 27.677L29.1087 27.6977L29.1087 27.6977C29.0931 27.7161 29.0789 27.7328 29.0677 27.7495C28.944 27.8938 28.8306 28.0174 28.6553 28.1101C28.3964 28.2394 28.1726 28.4389 27.9525 28.6352C27.857 28.7203 27.7621 28.8048 27.6654 28.8828C27.6448 28.9034 27.6035 28.9137 27.5726 28.9137C27.2529 29.2228 26.9333 29.5318 26.6033 29.8306C26.5827 29.8512 26.4899 29.8615 26.4177 29.8512C26.4177 29.8512 26.428 29.8512 26.428 29.8409L26.459 29.7791L26.6136 29.5318C26.6446 29.4855 26.6729 29.4391 26.7013 29.3927C26.7296 29.3464 26.758 29.3 26.7889 29.2537L26.7889 29.2536C26.8714 29.13 26.9539 29.0064 27.0467 28.8931C27.0673 28.8622 27.0673 28.8313 27.0467 28.8107C27.0261 28.7901 26.9952 28.7798 26.9642 28.7798C27.2632 28.4913 27.6138 28.244 27.9747 28.0277V28.0174C27.9335 28.0277 27.8716 27.9968 27.9026 27.9556C27.9328 27.9178 27.9575 27.8744 27.9808 27.8337L27.9808 27.8336L27.9811 27.8331L27.9811 27.8331C27.9894 27.8185 27.9975 27.8043 28.0057 27.7907C28.0108 27.7804 28.0134 27.7727 28.016 27.765L28.016 27.765L28.0185 27.7576C28.0204 27.7521 28.0228 27.7463 28.0263 27.7392C28.0211 27.7289 28.0134 27.7212 28.0057 27.7135C27.9979 27.7057 27.9902 27.698 27.985 27.6877C27.9646 27.7013 27.9436 27.715 27.9225 27.7287L27.9225 27.7287L27.9225 27.7287L27.9225 27.7287L27.9224 27.7287L27.9224 27.7288C27.8477 27.7773 27.7709 27.8273 27.7066 27.8835C27.6611 27.9224 27.6187 27.9758 27.5751 28.0306C27.4805 28.1494 27.3806 28.2749 27.2323 28.2749C27.222 28.2749 27.1704 28.2749 27.1395 28.2646C27.1086 28.2646 27.088 28.2543 27.0776 28.244C27.0776 28.2337 27.0776 28.2337 27.088 28.2337C27.088 28.2337 27.0983 28.2234 27.0983 28.2131C27.0983 28.2131 27.0983 28.2028 27.1086 28.2028C27.1137 28.1925 27.1189 28.1848 27.124 28.1771C27.1292 28.1693 27.1344 28.1616 27.1395 28.1513C27.1447 28.141 27.1498 28.1333 27.155 28.1256C27.1601 28.1178 27.1653 28.1101 27.1704 28.0998C27.1756 28.0947 27.1782 28.0869 27.1808 28.0792C27.1833 28.0715 27.1859 28.0637 27.1911 28.0586C27.1942 28.0524 27.1983 28.0452 27.2027 28.0373C27.2129 28.0193 27.2251 27.9977 27.2323 27.9762C27.2375 27.9659 27.2426 27.9581 27.2478 27.9504C27.2529 27.9427 27.2581 27.935 27.2632 27.9247C27.2787 27.9041 27.2916 27.8809 27.3045 27.8577L27.3045 27.8577C27.3174 27.8345 27.3303 27.8113 27.3457 27.7907C27.3561 27.7701 27.3664 27.7495 27.387 27.7289C27.3973 27.7083 27.4076 27.6903 27.4179 27.6723C27.4282 27.6542 27.4385 27.6362 27.4489 27.6156C27.4798 27.5641 27.4489 27.5229 27.4076 27.5126C27.521 27.3683 27.6551 27.2447 27.8201 27.152H27.7994C27.9422 27.0807 28.0891 26.9971 28.235 26.9141C28.3208 26.8653 28.4063 26.8166 28.4903 26.7708L28.4903 26.7708L28.4903 26.7708C28.5213 26.7399 28.5522 26.709 28.5934 26.6884C28.2531 26.8017 27.9438 26.9563 27.6448 27.1623C27.6448 27.1623 27.5623 27.1932 27.5417 27.2138C27.5417 27.2138 27.4798 27.2344 27.3973 27.1623C27.387 27.152 27.387 27.1417 27.387 27.1211C27.4228 27.0495 27.4967 27.002 27.5767 26.9508C27.6347 26.9136 27.6958 26.8743 27.7479 26.8223C27.8098 26.8223 27.8613 26.8223 27.8613 26.8841C29.0489 25.9592 30.5132 25.7452 31.9825 25.5305C32.8861 25.3984 33.7916 25.2661 34.6359 24.9679C34.7235 24.9061 34.8138 24.8469 34.904 24.7876L34.9041 24.7875C34.9943 24.7283 35.0845 24.6691 35.1721 24.6073C35.3225 24.5452 35.4572 24.4387 35.5999 24.3259C35.741 24.2145 35.8898 24.0969 36.0692 24.0098C36.5435 23.6492 36.9044 23.2371 37.09 22.6293C37.09 22.5675 37.0281 22.5057 37.0281 22.5057C36.2444 23.3402 35.3474 23.9995 34.3884 24.4837C33.474 24.963 32.4942 25.034 31.5243 25.1043C31.1599 25.1307 30.7968 25.157 30.4391 25.2049C30.501 25.0812 30.6248 25.0812 30.7382 25.0812C30.7382 24.935 30.8088 24.872 30.8993 24.7913L30.8994 24.7912L30.8994 24.7912C30.9236 24.7696 30.9492 24.7467 30.9753 24.7207H31.1506C31.1816 24.7207 31.197 24.6898 31.2125 24.6588C31.228 24.6279 31.2434 24.597 31.2744 24.597C31.3981 24.597 31.5734 24.5352 31.5115 24.5352C31.4169 24.4145 31.2795 24.4623 31.1279 24.515C30.982 24.5658 30.8229 24.6211 30.6763 24.5352C30.7308 24.4758 30.7472 24.4045 30.7622 24.3395C30.7783 24.2694 30.7927 24.2067 30.8516 24.1746H31.0888C31.0888 24.051 31.2125 23.9377 31.2125 23.9377C31.7504 23.6165 32.2698 23.336 32.7795 23.0607L32.7795 23.0607L32.7797 23.0606C33.12 22.8768 33.456 22.6954 33.7903 22.5057C33.7227 22.5057 33.6627 22.5333 33.6045 22.5601C33.5119 22.6028 33.4237 22.6434 33.316 22.5675C33.3779 22.5675 33.3779 22.5237 33.3779 22.4799C33.3779 22.4361 33.3779 22.3924 33.4398 22.3924C33.8266 22.2897 34.1709 22.1233 34.5226 21.9534L34.5226 21.9533C34.7709 21.8334 35.0227 21.7117 35.2958 21.6094C35.2147 21.6094 35.1397 21.631 35.0666 21.6522C34.9257 21.6928 34.792 21.7314 34.6359 21.6094C34.6768 21.5889 34.7099 21.5628 34.7425 21.537C34.8085 21.4849 34.8726 21.4342 34.9968 21.4342V21.2591C34.9968 21.1973 35.0586 21.1973 35.1205 21.1973C35.0586 21.1973 34.9968 21.1355 34.9968 21.1355C35.0295 21.07 35.0941 21.0566 35.1659 21.0415C35.2298 21.0282 35.2994 21.0137 35.3577 20.9603C35.2958 20.9603 35.1824 20.9603 35.1824 20.8985C35.3577 20.6616 35.6567 20.5998 35.9557 20.5379C35.9248 20.4761 35.8655 20.4761 35.8139 20.4761C35.7624 20.4761 35.7186 20.4761 35.7186 20.4143C35.7186 20.3525 35.7804 20.3525 35.8423 20.3525H35.7186C35.6215 20.304 35.6387 20.2174 35.6506 20.1575C35.6538 20.1411 35.6567 20.1266 35.6567 20.1156C35.8989 19.832 35.9786 19.4975 36.0578 19.1648L36.0578 19.1648L36.0578 19.1647L36.0578 19.1647L36.0578 19.1647L36.0578 19.1646C36.0966 19.0017 36.1353 18.8393 36.1929 18.6835C36.131 18.6835 36.0692 18.6835 36.0692 18.6217C35.4894 19.2609 34.5704 19.5031 33.6974 19.7332L33.6151 19.755H33.316C33.017 19.8786 32.5942 19.8786 32.2952 19.6932C32.153 19.619 32.0516 19.5264 31.9421 19.4263L31.942 19.4263C31.8689 19.3595 31.7921 19.2894 31.6971 19.2193C31.2125 18.9205 30.7382 18.6835 30.202 18.4981C28.7068 18.0242 27.1498 17.7769 25.5928 17.8387C26.0276 17.6012 26.4893 17.5067 26.9571 17.411L26.9572 17.411C27.1994 17.3614 27.4433 17.3115 27.686 17.2412C27.8391 17.1964 27.9908 17.1502 28.1416 17.1043L28.1417 17.1043L28.1417 17.1043L28.1418 17.1042L28.1418 17.1042L28.1419 17.1042C28.9971 16.8438 29.8267 16.5911 30.7382 16.6437C30.6189 16.6016 30.4661 16.6168 30.3254 16.6308L30.3254 16.6308C30.2594 16.6374 30.1961 16.6437 30.1401 16.6437C29.4509 16.5927 28.7546 16.7451 28.0281 16.9042C27.8743 16.9379 27.7191 16.9719 27.5623 17.0043C27.2778 17.0631 27.0072 17.1475 26.7363 17.2321C26.4377 17.3254 26.1386 17.4188 25.8197 17.4782C25.6813 17.5256 25.5703 17.6062 25.4621 17.6848C25.288 17.8113 25.1214 17.9323 24.8607 17.9006V17.7151C25.4588 16.994 26.1806 16.2831 27.1395 16.2213C28.0665 16.0713 28.9405 16.1782 29.8523 16.2896C30.0054 16.3083 30.1597 16.3271 30.3154 16.3449C31.0628 16.4047 31.7621 16.5702 32.5155 16.7487L32.5157 16.7487L32.5157 16.7487L32.5942 16.7673C32.7592 16.7673 32.852 16.9116 32.9419 17.0513C33.0149 17.1648 33.086 17.2753 33.1923 17.303C33.3391 17.3533 33.4859 17.3627 33.6327 17.3721C33.8468 17.3857 34.0609 17.3994 34.275 17.54C34.275 17.4984 34.268 17.458 34.261 17.4179C34.2474 17.3389 34.2339 17.2614 34.275 17.1794C34.408 17.0465 34.5605 17.0821 34.7107 17.1173C34.8282 17.1447 34.9442 17.1719 35.0483 17.1176C35.3753 16.916 35.0686 16.6066 34.7616 16.2968C34.6136 16.1475 34.4656 15.9981 34.3884 15.8607C34.3884 15.7989 34.4503 15.7371 34.4503 15.7371C34.5857 15.8577 34.7118 15.9825 34.8369 16.1062C35.15 16.4158 35.4562 16.7187 35.8836 16.9321C36.1826 17.0558 36.9044 17.2309 36.7806 16.8703C36.5688 16.4033 36.207 15.9984 35.8418 15.5895C35.6913 15.4211 35.5403 15.2521 35.3989 15.0777V14.8408C35.3049 14.8408 35.2823 14.8051 35.2543 14.7609C35.2454 14.7469 35.236 14.732 35.2236 14.7172V14.4802C35.0725 14.4014 35.0386 14.2766 35.0045 14.1511C34.9852 14.0796 34.9657 14.008 34.9246 13.9445C34.8212 13.7781 34.8138 13.5734 34.8062 13.3624C34.8001 13.1945 34.7938 13.0225 34.739 12.8628C34.6153 12.5022 34.5637 12.2034 34.5018 11.8428C34.4347 11.4739 34.3608 11.1212 34.2885 10.7759C34.1609 10.1665 34.038 9.58008 33.9656 8.9685C33.8702 8.09439 34.3146 7.35513 34.7689 6.59943C34.9036 6.37539 35.0391 6.1499 35.1618 5.91903C35.5845 5.19787 36.0588 4.48702 36.8425 4.00281C37.0135 3.29945 37.4787 2.71368 37.9416 2.13083L37.9768 2.08659C38.4336 1.52096 39.1967 1.17517 39.759 0.920326L39.8225 0.891525C40.6577 0.520644 41.4104 0.283691 41.4208 0.283691H0V32.0044H29.3874C30.1733 31.4384 30.9544 31.0814 31.8842 30.6563L31.8843 30.6563C32.3085 30.4624 32.7637 30.2543 33.2645 30.0057C33.3705 29.9527 33.4966 29.8911 33.6365 29.8227C34.4758 29.4126 35.8129 28.7591 36.3166 28.2646ZM27.0983 23.9789C27.0679 23.9789 27.0308 23.9826 26.993 23.9864C26.8763 23.998 26.7525 24.0104 26.7992 23.9171C26.8425 23.7079 27.0577 23.6452 27.2678 23.5839C27.3578 23.5577 27.4468 23.5318 27.521 23.4947C27.5396 23.4854 27.5593 23.475 27.5798 23.4642C27.6961 23.4026 27.8386 23.3273 27.9438 23.3711C28.0147 23.4715 28.1026 23.4974 28.188 23.5226C28.2516 23.5413 28.3138 23.5596 28.3666 23.608C28.1435 23.8309 27.8832 23.8529 27.6192 23.8751C27.4439 23.8899 27.267 23.9049 27.0983 23.9789ZM17.8696 22.5366C17.8696 22.5984 17.9315 22.6602 17.9315 22.6602C19.3751 21.0428 20.6846 19.6623 22.5407 18.5187C22.5904 18.498 22.5719 18.5239 22.5473 18.5582C22.5107 18.6093 22.4606 18.6793 22.6025 18.6423C23.217 18.5032 23.493 17.9803 23.7614 17.4716C23.8309 17.3401 23.8998 17.2095 23.9739 17.0867C24.2555 16.6318 24.6555 16.3403 25.0585 16.0466C25.3491 15.8348 25.6413 15.6219 25.8919 15.3456C25.8919 15.4074 25.8919 15.4692 25.83 15.5311C25.8919 15.5929 25.9537 15.5929 26.0156 15.5929C26.1244 15.5114 26.2431 15.4776 26.3569 15.4453C26.502 15.404 26.6392 15.3651 26.7374 15.2323C26.2631 15.0468 25.6547 14.985 25.1804 15.1705C23.9224 15.768 22.85 16.7261 21.8292 17.8079C21.2105 18.4569 20.5712 19.0647 19.7875 19.4871C19.2513 20.5586 18.6533 21.5167 17.8696 22.5366ZM22.9015 18.7041C22.8692 18.7688 22.8368 18.8024 22.806 18.8345C22.7778 18.8639 22.7508 18.8919 22.7262 18.9411C22.6644 19.0647 22.6025 19.1162 22.4891 19.178C22.4272 19.178 22.3653 19.178 22.3653 19.1162C22.4272 18.8793 22.6025 18.6423 22.8396 18.5805C22.9015 18.5908 22.9015 18.6526 22.9015 18.7041ZM25.5412 27.8525C25.5928 27.801 25.6547 27.7392 25.6856 27.6774C25.7372 27.5538 25.4175 27.5847 25.3659 27.6156C25.3192 27.653 25.2893 27.6904 25.2534 27.7355L25.2422 27.7495C25.1992 27.7986 25.1489 27.8441 25.0977 27.8902C25.0631 27.9215 25.0281 27.9532 24.9947 27.9865C24.8504 28.1307 24.706 28.2749 24.5513 28.4089C24.4482 28.5016 24.7782 28.5428 24.8504 28.481C24.9329 28.4192 25.005 28.3471 25.0772 28.275L25.0772 28.275L25.0772 28.2749C25.1047 28.2749 25.1322 28.2704 25.1505 28.2673L25.1505 28.2673L25.1506 28.2673C25.1597 28.2658 25.1666 28.2646 25.17 28.2646C25.341 28.2077 25.4682 28.0896 25.5919 27.9747L25.6237 27.9453C25.665 27.9041 25.6134 27.8628 25.5412 27.8525ZM24.6132 27.1829C24.608 27.1829 24.6055 27.1829 24.6042 27.1842C24.6029 27.1855 24.6029 27.188 24.6029 27.1932C24.5396 27.2363 24.4772 27.2802 24.4149 27.3239C24.2537 27.4372 24.0934 27.5499 23.9223 27.6465C23.7588 27.738 23.5911 27.8171 23.4218 27.8969L23.4217 27.8969C23.3243 27.9429 23.2263 27.989 23.1284 28.038C23.1284 28.038 23.1284 28.0277 23.118 28.0277C23.0974 27.9968 23.0562 27.9865 23.0149 28.0071C22.7881 28.1307 22.5922 28.2955 22.4169 28.4707C22.3859 28.4913 22.355 28.5222 22.3344 28.5531L22.2519 28.6355L22.2416 28.6458V28.6561C22.2003 28.6973 22.1591 28.7385 22.1075 28.8004C22.0968 28.8111 22.0886 28.8218 22.0807 28.832L22.0807 28.8321C22.0657 28.8514 22.052 28.8693 22.025 28.8828C21.9838 28.9034 21.8807 28.9034 21.891 28.8416V28.8313C21.8601 28.8519 21.8188 28.8725 21.7879 28.8828C21.7724 28.8931 21.757 28.9008 21.7415 28.9085C21.726 28.9163 21.7105 28.924 21.6951 28.9343C21.6848 28.924 21.6641 28.924 21.6538 28.924C21.6435 28.924 21.6229 28.924 21.6126 28.9343C21.5886 28.9549 21.5645 28.9743 21.5405 28.9937L21.5404 28.9938L21.5404 28.9938C21.4923 29.0327 21.4442 29.0717 21.3961 29.1197C21.2723 29.233 21.1589 29.3567 21.0455 29.4906C21.0455 29.4906 21.0455 29.5009 21.0352 29.5009C21.0352 29.5061 21.0326 29.5086 21.03 29.5112C21.0274 29.5138 21.0248 29.5164 21.0248 29.5215L21.0042 29.5421C21.0003 29.546 20.9978 29.55 20.9958 29.5533C20.9924 29.5588 20.99 29.5627 20.9836 29.5627L20.9733 29.573C20.963 29.5936 20.9527 29.6142 20.932 29.6348C20.9217 29.6451 20.9011 29.6554 20.8805 29.6554C20.8702 29.6451 20.8599 29.6348 20.8599 29.6245C20.8547 29.6194 20.8521 29.6142 20.8495 29.6091C20.847 29.6039 20.8444 29.5988 20.8392 29.5936C20.8289 29.5782 20.8212 29.5627 20.8135 29.5473C20.8057 29.5318 20.798 29.5164 20.7877 29.5009V29.4906C20.7877 29.4855 20.7851 29.4803 20.7825 29.4751C20.7799 29.47 20.7774 29.4648 20.7774 29.4597L20.963 29.2433L20.9733 29.233C20.9836 29.2227 20.9939 29.2099 21.0042 29.197C21.0145 29.1841 21.0248 29.1712 21.0352 29.1609C21.0506 29.1403 21.0687 29.1197 21.0867 29.0991L21.0868 29.0991C21.1048 29.0785 21.1228 29.0579 21.1383 29.0373C21.1434 29.027 21.1486 29.0193 21.1537 29.0116C21.1589 29.0038 21.164 28.9961 21.1692 28.9858C21.2311 28.9034 21.2929 28.821 21.3548 28.7282V28.7179C21.3651 28.7076 21.3754 28.6973 21.3754 28.6767C21.4064 28.6355 21.4373 28.5943 21.4579 28.5531L21.5198 28.4295V28.4192L21.5301 28.4089C21.5301 28.4037 21.5327 28.4011 21.5353 28.3986C21.5378 28.396 21.5404 28.3934 21.5404 28.3883C21.5507 28.3625 21.561 28.3393 21.5713 28.3162C21.5817 28.293 21.592 28.2698 21.6023 28.244V28.2337L21.6126 28.1925C21.6177 28.1822 21.6203 28.1719 21.6229 28.1616C21.6255 28.1513 21.6281 28.141 21.6332 28.1307V28.1204C21.6384 28.1049 21.6409 28.0895 21.6435 28.074C21.6461 28.0586 21.6487 28.0431 21.6538 28.0277C21.6538 28.0174 21.6538 27.9968 21.6435 27.9865C21.7054 27.8731 21.7879 27.7701 21.8807 27.6671C21.8755 27.6671 21.8704 27.6697 21.8652 27.6723C21.8601 27.6748 21.8549 27.6774 21.8498 27.6774C21.8039 27.7061 21.7644 27.7443 21.7241 27.7832L21.7241 27.7832C21.692 27.8142 21.6595 27.8457 21.6229 27.8731C21.561 27.9247 21.4373 27.8422 21.5198 27.7804C21.5713 27.7392 21.6126 27.698 21.6538 27.6568L21.6538 27.6568C21.6538 27.6568 21.6538 27.6465 21.6641 27.6465C21.7053 27.6095 21.7447 27.5676 21.7845 27.5254L21.7845 27.5254L21.7846 27.5254C21.8446 27.4617 21.9053 27.3973 21.9735 27.3477C22.0457 27.2962 22.0972 27.255 22.1591 27.2035C22.1694 27.1932 22.1797 27.1829 22.19 27.1829L22.1901 27.1829C22.2313 27.1314 22.2725 27.0799 22.3241 27.0284C22.3241 27.0284 22.3344 27.0284 22.3344 27.0181C22.6885 26.6769 23.1861 26.5566 23.6939 26.4338C24.0143 26.3563 24.3387 26.2778 24.6338 26.1424C24.8005 26.0735 24.9864 26.1006 25.1701 26.1274C25.316 26.1486 25.4604 26.1697 25.5928 26.1424C25.7681 26.1424 25.9537 26.1424 26.129 26.266C25.7212 26.4817 25.3321 26.7283 24.9471 26.9723L24.9471 26.9723C24.8356 27.043 24.7244 27.1135 24.6132 27.1829ZM25.8931 22.9849C25.8448 22.9904 25.8135 22.994 25.8403 23.0208C26.0156 23.1959 26.3765 23.1341 26.624 23.0002C26.7993 22.8766 26.9849 22.8766 27.2221 22.8766C27.2839 22.8766 27.2839 22.7632 27.2839 22.7014C27.4592 22.7632 27.583 22.7632 27.7582 22.7632C29.1915 22.4645 30.5732 22.1657 31.8931 21.5063C30.5576 20.4813 28.9112 20.0247 27.2985 19.5775C27.031 19.5033 26.7644 19.4294 26.5003 19.3532C26.5583 19.3532 26.6164 19.3724 26.6748 19.3917C26.7928 19.4308 26.9123 19.4703 27.0365 19.3532C26.8728 19.2235 26.6907 19.1987 26.5103 19.1742C26.361 19.1539 26.2129 19.1337 26.0775 19.0544C26.0916 19.0544 26.1084 19.0576 26.1267 19.0611C26.1885 19.073 26.2669 19.088 26.3147 18.9926C26.0014 18.8361 25.6882 18.783 25.372 18.7293C25.2094 18.7017 25.046 18.674 24.8814 18.632C25.1804 18.5702 25.366 18.3333 25.366 18.0345C25.366 17.9727 25.2423 17.9727 25.1804 17.9727C24.4689 18.3333 23.9843 18.9926 23.6853 19.7653C23.9548 19.9229 24.2454 19.9047 24.5302 19.8867C24.692 19.8766 24.8519 19.8665 25.0051 19.8889C24.8699 20.0165 24.6745 20.0511 24.4867 20.0844C24.4167 20.0968 24.3477 20.1091 24.2833 20.1258C24.0977 20.1671 23.9224 20.301 23.9843 20.4246C24.0255 20.4761 24.0668 20.4967 24.1183 20.507C23.9843 20.5482 23.8606 20.6101 23.7471 20.7234C23.9169 20.8561 24.0919 20.8305 24.2647 20.8052C24.3333 20.7952 24.4015 20.7852 24.4689 20.7852C24.4689 20.86 24.5184 20.8854 24.5698 20.9119C24.5962 20.9255 24.6232 20.9393 24.6442 20.9603C24.3452 21.0737 24.108 21.3209 24.0462 21.496C23.9722 21.6745 23.8358 21.7905 23.7005 21.9054C23.6093 21.9829 23.5187 22.06 23.4481 22.1554V22.3408C23.2489 22.5162 23.0442 22.6729 22.8422 22.8274C22.4275 23.1447 22.0245 23.453 21.7055 23.8965C21.7673 23.8965 21.7673 23.9583 21.7673 24.0201C21.7103 24.1056 21.6291 24.1648 21.5521 24.221C21.4622 24.2866 21.3779 24.3481 21.3446 24.4425C21.3446 24.5043 21.3446 24.5661 21.4064 24.5661C21.7848 24.4419 22.1122 24.2328 22.4331 24.0277C22.7244 23.8416 23.0104 23.6589 23.3244 23.5462C23.581 23.4849 23.8044 23.3693 24.0223 23.2566C24.2073 23.1609 24.3883 23.0672 24.5823 23.0105C24.7319 22.9796 24.8968 22.9358 25.0618 22.892C25.2268 22.8482 25.3918 22.8044 25.5413 22.7735C25.5413 22.8353 25.5413 22.8972 25.6032 22.8972H26.0775C26.0483 22.9672 25.9562 22.9777 25.8931 22.9849Z" fill="#000091"/>
<path d="M87.461 0.324707H53.351C53.351 0.324707 53.4129 0.335009 53.6706 0.468939C53.949 0.61317 54.3099 0.808913 54.5265 0.922238C54.9699 1.14889 55.3926 1.43735 55.671 1.88035C55.7948 2.05549 55.9701 2.41607 55.8566 2.65302C55.7329 2.95178 55.671 3.43599 55.372 3.54932C55.0111 3.73476 54.5368 3.73476 54.114 3.67294C53.8769 3.67294 53.6397 3.61113 53.3922 3.54932C54.2893 3.90989 55.1349 4.33229 55.7329 5.16677C55.7948 5.2904 56.0319 5.34191 56.2691 5.34191C56.331 5.34191 56.331 5.46554 56.331 5.51705C56.2072 5.64068 56.0938 5.70249 56.1557 5.87763H56.331C56.63 5.754 56.5681 5.15647 56.9909 5.34191C57.2899 5.51705 57.4137 5.93944 57.2281 6.23821C56.9909 6.47516 56.7537 6.6606 56.5063 6.83574C56.4444 6.95936 56.4444 7.1345 56.5063 7.25813C56.6816 7.49508 56.7434 7.73204 56.8053 7.97929C56.9909 8.40168 57.0425 8.87559 57.2281 9.29798C57.4652 10.1943 57.7024 11.0906 57.6508 11.9972C57.6508 12.4711 57.4137 12.8935 57.589 13.3777C57.7127 13.8516 58.0117 14.2122 58.2489 14.6346C58.486 14.9951 58.7232 15.2321 58.9088 15.5927C59.2697 16.1902 59.9296 16.7877 59.6306 17.5089C59.4553 17.9313 58.7954 17.8695 58.3726 18.1064C58.0117 18.4052 58.3108 18.8894 58.4964 19.1882C58.7954 19.7239 58.1355 20.0844 57.7127 20.2699C57.8364 20.4553 58.0736 20.3935 58.1355 20.5068C58.1973 20.8056 58.4964 20.9807 58.3108 21.2898C58.0736 21.6504 57.3518 21.8255 57.7127 22.3716C57.9499 22.7939 57.7952 23.2575 57.6508 23.6902C57.4755 24.226 56.9909 24.4629 56.5681 24.5865C56.2072 24.7102 55.7845 24.7102 55.4339 24.6484C55.3101 24.5865 55.1967 24.5247 55.073 24.5247C54.0522 24.4011 53.0313 24.1126 52.0208 24.1126C51.7218 24.1744 51.4228 24.226 51.1856 24.3496C50.9175 24.5453 50.67 24.7617 50.4638 24.9883C50.4638 24.9883 50.4638 24.9883 50.4535 24.9986C50.4122 25.0501 50.3607 25.0914 50.3194 25.1429C50.2988 25.1738 50.2679 25.2047 50.2473 25.2356C50.2266 25.2562 50.2163 25.2768 50.1957 25.2974C50.0204 25.5137 49.8657 25.7507 49.7214 25.9876C49.7111 26.0083 49.7008 26.0186 49.6905 26.0289C49.6801 26.0598 49.6595 26.0804 49.6389 26.1113C49.443 26.4719 49.2986 26.8427 49.1852 27.2136C48.7727 28.5838 48.9583 29.7583 49.2471 30.0467C49.3296 30.1292 51.2268 30.7164 52.5467 31.3036C53.1654 31.5818 53.5985 31.7878 53.9594 32.0145H87.4507V0.324707H87.461Z" fill="#E1000F"/>
<path d="M55.3822 11.8737C55.6193 11.9355 55.9802 11.9355 55.9802 12.0591C55.8565 12.533 55.145 12.6566 54.7841 13.1408H54.5985C54.4232 13.2645 54.4748 13.5632 54.2995 13.5632C54.1242 13.5014 53.9386 13.5632 53.7633 13.625C54.0005 13.862 54.2995 14.0474 54.6604 13.9856C54.7223 13.9856 54.8357 14.1092 54.8357 14.2226C54.8357 14.2226 54.8975 14.2226 54.9594 14.1608C55.0213 14.1608 55.0832 14.1608 55.0832 14.2226V14.4595C54.9079 14.6965 54.5985 14.5831 54.3614 14.6347C54.846 14.7583 55.3203 14.7583 55.7431 14.6347C56.104 14.511 55.7431 13.9135 55.9802 13.6147C55.8565 13.6147 55.9802 13.4293 55.8565 13.4293C55.9802 13.3057 56.0937 13.1305 56.2174 13.0687C56.3411 13.0687 56.5164 13.0069 56.5783 12.8833C56.5783 12.7596 56.3411 12.7081 56.3927 12.5845C56.7536 12.3476 57.0526 11.987 56.9289 11.6264C56.867 11.441 56.3927 11.441 56.0937 11.3276C55.7946 11.2143 55.4337 11.3276 55.0728 11.3894C54.7738 11.3894 54.4748 11.5749 54.1758 11.6264C53.753 11.75 53.3921 11.987 53.0415 12.2239C53.4643 12.0488 53.8767 11.987 54.3614 11.8634C54.7223 11.8737 55.0213 11.7912 55.3822 11.8737Z" fill="#808080"/>
</svg>
