<svg width="76" height="76" viewBox="0 0 76 76" fill="none" xmlns="http://www.w3.org/2000/svg">
<path d="M38 69.6666C55.4891 69.6666 69.6667 55.4889 69.6667 37.9999C69.6667 20.5109 55.4891 6.33325 38 6.33325C20.511 6.33325 6.33337 20.5109 6.33337 37.9999C6.33337 55.4889 20.511 69.6666 38 69.6666Z" stroke="#000091" stroke-width="5" stroke-linecap="round" stroke-linejoin="round"/>
<path d="M38 57C48.4934 57 57 48.4934 57 38C57 27.5066 48.4934 19 38 19C27.5066 19 19 27.5066 19 38C19 48.4934 27.5066 57 38 57Z" stroke="#000091" stroke-width="5" stroke-linecap="round" stroke-linejoin="round"/>
<path d="M38 44.3334C41.4978 44.3334 44.3333 41.4979 44.3333 38.0001C44.3333 34.5023 41.4978 31.6667 38 31.6667C34.5022 31.6667 31.6666 34.5023 31.6666 38.0001C31.6666 41.4979 34.5022 44.3334 38 44.3334Z" stroke="#000091" stroke-width="5" stroke-linecap="round" stroke-linejoin="round"/>
</svg>
