<svg width="155" height="50" viewBox="0 0 155 50" fill="none" xmlns="http://www.w3.org/2000/svg">
<g clip-path="url(#clip0)">
<path d="M143.324 0.964515H11.6821C11.2328 0.964515 10.7889 0.964515 10.3408 0.966965C9.96572 0.969415 9.59361 0.976532 9.21491 0.982522C8.39219 0.992202 7.5714 1.06457 6.75968 1.19899C5.9491 1.33634 5.16392 1.59529 4.43068 1.96707C3.69834 2.34199 3.02918 2.82917 2.44747 3.41093C1.86271 3.99105 1.37527 4.66158 1.00389 5.39676C0.631481 6.13047 0.373253 6.91671 0.238122 7.72833C0.101707 8.53892 0.0283007 9.35885 0.0185621 10.1808C0.00719206 10.5564 0.00599134 10.9332 0 11.3088V39.6238C0.00599134 40.0042 0.00719206 40.3726 0.0185621 40.7531C0.0283037 41.575 0.10171 42.3949 0.238122 43.2055C0.37288 44.0175 0.631123 44.8042 1.00389 45.5382C1.3751 46.271 1.86261 46.9388 2.44747 47.5157C3.02697 48.1001 3.69656 48.5876 4.43068 48.9596C5.16391 49.3324 5.94901 49.5929 6.75968 49.7324C7.57154 49.8657 8.39224 49.9381 9.21491 49.949C9.59361 49.9573 9.96572 49.9621 10.3408 49.9621C10.7889 49.9645 11.2329 49.9645 11.6821 49.9645H143.324C143.765 49.9645 144.212 49.9645 144.653 49.9621C145.026 49.9621 145.409 49.9573 145.782 49.949C146.603 49.9387 147.422 49.8663 148.233 49.7324C149.046 49.5919 149.834 49.3315 150.571 48.9596C151.304 48.5874 151.973 48.0999 152.552 47.5157C153.135 46.9366 153.624 46.2692 154 45.5382C154.37 44.8037 154.625 44.0171 154.758 43.2055C154.895 42.3948 154.971 41.5751 154.986 40.7531C154.99 40.3726 154.99 40.0042 154.99 39.6238C155 39.1788 155 38.7362 155 38.2839V12.6463C155 12.1977 155 11.7526 154.99 11.3088C154.99 10.9332 154.99 10.5564 154.986 10.1807C154.971 9.35873 154.895 8.53898 154.758 7.72828C154.625 6.91714 154.369 6.13096 154 5.39671C153.243 3.92313 152.044 2.72365 150.571 1.96696C149.834 1.59608 149.046 1.33721 148.233 1.19888C147.423 1.06387 146.603 0.991474 145.782 0.982351C145.409 0.976373 145.026 0.969194 144.653 0.966805C144.212 0.964355 143.765 0.964355 143.324 0.964355V0.964515Z" fill="#A6A6A6"/>
<path d="M10.3467 48.8926C9.97345 48.8926 9.60916 48.8878 9.2388 48.8795C8.47154 48.8695 7.70607 48.8027 6.94868 48.6797C6.24245 48.5581 5.5583 48.3319 4.9188 48.0085C4.28517 47.6879 3.70724 47.2674 3.20717 46.7632C2.69985 46.265 2.27749 45.6871 1.95681 45.0525C1.63261 44.4138 1.40824 43.7291 1.29152 43.0224C1.16547 42.2631 1.09728 41.4952 1.08752 40.7255C1.07975 40.4672 1.06958 39.607 1.06958 39.607V11.3088C1.06958 11.3088 1.08041 10.4618 1.08758 10.213C1.09692 9.44454 1.16472 8.6779 1.29038 7.91972C1.40732 7.21108 1.63187 6.52447 1.95625 5.88365C2.27574 5.24949 2.69576 4.67118 3.20001 4.17116C3.70371 3.66639 4.28349 3.24374 4.9182 2.91863C5.55623 2.59632 6.23909 2.3717 6.94389 2.25231C7.70377 2.12805 8.47189 2.06087 9.24181 2.05133L10.3474 2.03638H144.647L145.765 2.05193C146.528 2.061 147.289 2.12758 148.042 2.25111C148.754 2.372 149.444 2.59818 150.09 2.92222C151.361 3.57741 152.396 4.61398 153.048 5.88664C153.368 6.52303 153.589 7.20405 153.704 7.90656C153.831 8.67097 153.902 9.44363 153.917 10.2184C153.921 10.5653 153.921 10.938 153.921 11.3088C153.93 11.7682 153.93 12.2054 153.93 12.6463V38.2839C153.93 38.7289 153.93 39.1632 153.921 39.601C153.921 39.9994 153.921 40.3643 153.916 40.7399C153.902 41.5008 153.832 42.2597 153.706 43.0104C153.592 43.7222 153.369 44.4122 153.045 45.0562C152.722 45.6839 152.302 46.2567 151.801 46.7537C151.3 47.2605 150.721 47.6835 150.086 48.0062C149.442 48.3321 148.753 48.5591 148.042 48.6797C147.285 48.8034 146.519 48.8702 145.752 48.8795C145.393 48.8878 145.017 48.8926 144.653 48.8926L143.324 48.8951L10.3467 48.8926Z" fill="black"/>
<path d="M30.351 25.8327C30.3641 24.8102 30.6358 23.8077 31.1406 22.9184C31.6454 22.0291 32.367 21.282 33.2383 20.7464C32.6848 19.9561 31.9546 19.3057 31.1058 18.8469C30.2569 18.388 29.3127 18.1334 28.3482 18.1033C26.2908 17.8873 24.2962 19.3342 23.2477 19.3342C22.179 19.3342 20.5648 18.1247 18.8265 18.1605C17.7022 18.1968 16.6064 18.5237 15.646 19.1093C14.6855 19.6949 13.8932 20.5193 13.3462 21.5021C10.9766 25.6039 12.7441 31.6322 15.014 34.9478C16.1496 36.5714 17.4769 38.3849 19.2136 38.3206C20.913 38.2501 21.5477 37.2371 23.5991 37.2371C25.6315 37.2371 26.227 38.3206 27.9989 38.2797C29.8225 38.2501 30.9715 36.6489 32.0673 35.01C32.8832 33.8532 33.5111 32.5746 33.9276 31.2217C32.8682 30.7737 31.9641 30.0237 31.328 29.0654C30.692 28.1071 30.3522 26.9828 30.351 25.8327Z" fill="white"/>
<path d="M27.0041 15.9227C27.9984 14.7293 28.4883 13.1954 28.3697 11.6467C26.8506 11.8062 25.4474 12.5321 24.4397 13.6798C23.9469 14.2404 23.5696 14.8926 23.3291 15.5992C23.0887 16.3057 22.9899 17.0527 23.0384 17.7975C23.7982 17.8053 24.5498 17.6406 25.2368 17.3159C25.9237 16.9912 26.528 16.5148 27.0041 15.9227Z" fill="white"/>
<path d="M43.6857 18.9741V12.6978H41.386V11.6648H47.1161V12.6978H44.8212V18.9741H43.6857Z" fill="white"/>
<path d="M52.3963 17.4847C52.2484 17.9888 51.9279 18.4249 51.4908 18.7166C51.0538 19.0083 50.5281 19.1371 50.0057 19.0805C49.6422 19.0901 49.281 19.0205 48.9471 18.8765C48.6132 18.7325 48.3147 18.5176 48.0722 18.2468C47.8297 17.9759 47.6491 17.6554 47.5429 17.3078C47.4367 16.9601 47.4074 16.5935 47.4571 16.2333C47.4087 15.8721 47.4385 15.5047 47.5445 15.156C47.6504 14.8072 47.8301 14.4853 48.0713 14.2121C48.3125 13.9388 48.6096 13.7205 48.9425 13.5721C49.2755 13.4236 49.6364 13.3484 50.0009 13.3515C51.536 13.3515 52.4621 14.4001 52.4621 16.1322V16.512H48.5663V16.573C48.5492 16.7755 48.5747 16.9792 48.641 17.1712C48.7073 17.3633 48.813 17.5393 48.9514 17.6881C49.0897 17.8369 49.2576 17.9551 49.4443 18.0352C49.631 18.1153 49.8324 18.1555 50.0356 18.1533C50.296 18.1846 50.5599 18.1377 50.7936 18.0186C51.0274 17.8995 51.2204 17.7136 51.3482 17.4846L52.3963 17.4847ZM48.5663 15.707H51.353C51.3667 15.5218 51.3415 15.3359 51.2791 15.1611C51.2167 14.9862 51.1183 14.8264 50.9904 14.6918C50.8625 14.5572 50.7079 14.4509 50.5365 14.3796C50.365 14.3084 50.1805 14.2738 49.9949 14.278C49.8066 14.2756 49.6197 14.311 49.4453 14.382C49.2708 14.4529 49.1124 14.5581 48.9792 14.6913C48.8461 14.8245 48.741 14.9829 48.67 15.1574C48.5991 15.3318 48.5638 15.5187 48.5663 15.707H48.5663ZM49.3464 12.5356L50.6183 10.7932H51.895L50.4711 12.5356H49.3464Z" fill="white"/>
<path d="M53.9745 11.3047H55.0633V18.9741H53.9745V11.3047Z" fill="white"/>
<path d="M61.5161 17.4847C61.3681 17.9888 61.0476 18.4249 60.6106 18.7166C60.1736 19.0083 59.6479 19.1371 59.1254 19.0805C58.762 19.0901 58.4007 19.0205 58.0669 18.8765C57.733 18.7325 57.4345 18.5176 57.192 18.2468C56.9495 17.9759 56.7689 17.6554 56.6626 17.3078C56.5564 16.9601 56.5272 16.5935 56.5769 16.2333C56.5285 15.8721 56.5583 15.5047 56.6642 15.156C56.7702 14.8072 56.9499 14.4853 57.1911 14.2121C57.4323 13.9388 57.7294 13.7205 58.0623 13.5721C58.3952 13.4236 58.7561 13.3484 59.1206 13.3515C60.6558 13.3515 61.5819 14.4001 61.5819 16.1322V16.512H57.686V16.573C57.669 16.7755 57.6944 16.9792 57.7607 17.1712C57.827 17.3633 57.9327 17.5393 58.0711 17.6881C58.2094 17.8369 58.3773 17.9551 58.564 18.0352C58.7508 18.1153 58.9522 18.1555 59.1553 18.1533C59.4158 18.1846 59.6796 18.1377 59.9134 18.0186C60.1471 17.8995 60.3401 17.7136 60.4679 17.4846L61.5161 17.4847ZM57.686 15.707H60.4727C60.4864 15.5218 60.4612 15.3359 60.3988 15.1611C60.3364 14.9862 60.238 14.8264 60.1101 14.6918C59.9822 14.5572 59.8276 14.4509 59.6562 14.3796C59.4847 14.3084 59.3003 14.2738 59.1146 14.278C58.9263 14.2756 58.7394 14.311 58.565 14.382C58.3905 14.4529 58.2321 14.5581 58.0989 14.6913C57.9658 14.8245 57.8607 14.9829 57.7898 15.1574C57.7188 15.3318 57.6836 15.5187 57.686 15.707ZM58.4661 12.5356L59.738 10.7932H61.0147L59.5909 12.5356H58.4661Z" fill="white"/>
<path d="M66.6563 15.2607C66.5869 14.9747 66.4174 14.7229 66.1783 14.5511C65.9393 14.3793 65.6467 14.2987 65.3533 14.324C64.4416 14.324 63.884 15.0226 63.884 16.198C63.884 17.3937 64.4464 18.1079 65.3533 18.1079C65.6438 18.1415 65.9365 18.0679 66.1764 17.9009C66.4164 17.7339 66.587 17.4851 66.6563 17.2011H67.7153C67.6452 17.7597 67.3597 18.2688 66.9196 18.6198C66.4795 18.9709 65.9196 19.1362 65.3593 19.0805C64.9904 19.0921 64.6234 19.023 64.284 18.8781C63.9446 18.7331 63.641 18.5157 63.3944 18.2412C63.1478 17.9666 62.9641 17.6415 62.8563 17.2886C62.7484 16.9357 62.719 16.5635 62.7701 16.198C62.7216 15.8353 62.7529 15.4663 62.8618 15.1168C62.9706 14.7674 63.1545 14.4459 63.4005 14.1749C63.6464 13.9038 63.9486 13.6897 64.2859 13.5475C64.6232 13.4053 64.9875 13.3384 65.3534 13.3515C65.9182 13.2994 66.4811 13.4699 66.9222 13.8264C67.3633 14.183 67.6478 14.6976 67.7153 15.2607L66.6563 15.2607Z" fill="white"/>
<path d="M69.1606 11.3047H70.2398V14.3445H70.326C70.4707 14.0268 70.7099 13.7615 71.0109 13.5846C71.312 13.4078 71.6602 13.3281 72.0082 13.3563C72.2753 13.3418 72.5422 13.3864 72.7901 13.4869C73.0379 13.5874 73.2605 13.7413 73.442 13.9377C73.6235 14.1342 73.7594 14.3682 73.84 14.6232C73.9206 14.8781 73.9439 15.1477 73.9083 15.4128V18.9741H72.8182V15.6813C72.8182 14.8002 72.4078 14.354 71.6385 14.354C71.4513 14.3387 71.2631 14.3644 71.087 14.4294C70.9108 14.4944 70.751 14.5971 70.6187 14.7303C70.4863 14.8635 70.3847 15.024 70.3209 15.2005C70.2571 15.3771 70.2327 15.5655 70.2493 15.7525V18.9741H69.1605L69.1606 11.3047Z" fill="white"/>
<path d="M75.2771 17.4142C75.2771 16.4212 76.0165 15.8488 77.3291 15.7675L78.8235 15.6813V15.2052C78.8235 14.6226 78.4383 14.2936 77.694 14.2936C77.0862 14.2936 76.665 14.5167 76.5442 14.9067H75.4901C75.6013 13.9593 76.4927 13.3516 77.7443 13.3516C79.1274 13.3516 79.907 14.04 79.907 15.2052V18.9741H78.8594V18.1989H78.7733C78.5985 18.477 78.3529 18.7037 78.0618 18.8558C77.7706 19.008 77.4443 19.0802 77.1162 19.065C76.8845 19.0891 76.6505 19.0644 76.429 18.9925C76.2075 18.9206 76.0036 18.8031 75.8303 18.6475C75.657 18.492 75.5183 18.3019 75.423 18.0894C75.3277 17.877 75.278 17.647 75.2771 17.4142ZM78.8235 16.9428V16.4817L77.4763 16.5678C76.7165 16.6186 76.3719 16.877 76.3719 17.3633C76.3719 17.8598 76.8026 18.1487 77.395 18.1487C77.5685 18.1662 77.7438 18.1487 77.9105 18.0972C78.0771 18.0456 78.2317 17.9611 78.3649 17.8485C78.4982 17.736 78.6075 17.5979 78.6863 17.4423C78.7651 17.2867 78.8118 17.1168 78.8236 16.9428L78.8235 16.9428Z" fill="white"/>
<path d="M81.6121 13.4579H82.6602V14.3037H82.7416C82.8589 14.0101 83.0663 13.7612 83.3339 13.5928C83.6016 13.4244 83.9157 13.3452 84.2312 13.3664C84.3943 13.3642 84.5572 13.3795 84.717 13.4119V14.4862C84.5172 14.4435 84.3135 14.4215 84.1092 14.4204C83.9296 14.4043 83.7486 14.4259 83.5779 14.4839C83.4072 14.5418 83.2504 14.6349 83.1178 14.757C82.9852 14.8791 82.8796 15.0276 82.8078 15.193C82.736 15.3584 82.6996 15.5369 82.7009 15.7172V18.9741H81.6121L81.6121 13.4579Z" fill="white"/>
<path d="M85.7185 19.5261H86.8325C86.9246 19.9262 87.3852 20.1846 88.1199 20.1846C89.0268 20.1846 89.5641 19.754 89.5641 19.0248V17.9661H89.4827C89.3119 18.2625 89.0625 18.5059 88.762 18.6694C88.4616 18.8329 88.1217 18.9102 87.7801 18.8927C86.3718 18.8927 85.5007 17.804 85.5007 16.1525C85.5007 14.4706 86.3814 13.3664 87.7908 13.3664C88.141 13.3542 88.4879 13.4385 88.7934 13.61C89.0989 13.7815 89.3515 14.0337 89.5234 14.339H89.6095V13.4579H90.6529V19.0194C90.6529 20.2809 89.6646 21.0812 88.1043 21.0812C86.726 21.0813 85.8346 20.4634 85.7185 19.5261ZM89.5844 16.1472C89.5844 15.0483 89.0161 14.3444 88.0888 14.3444C87.1519 14.3444 86.6254 15.0484 86.6254 16.1472C86.6254 17.2466 87.1519 17.9506 88.0888 17.9506C89.0221 17.9506 89.5844 17.2519 89.5844 16.1471V16.1472Z" fill="white"/>
<path d="M97.0529 17.4846C96.905 17.9887 96.5845 18.4248 96.1475 18.7165C95.7104 19.0083 95.1847 19.1371 94.6623 19.0804C94.2988 19.09 93.9376 19.0204 93.6037 18.8765C93.2699 18.7325 92.9713 18.5176 92.7288 18.2467C92.4863 17.9758 92.3057 17.6554 92.1995 17.3077C92.0933 16.96 92.064 16.5934 92.1137 16.2333C92.0653 15.872 92.0951 15.5046 92.2011 15.1559C92.3071 14.8072 92.4867 14.4853 92.7279 14.212C92.9691 13.9388 93.2663 13.7205 93.5992 13.572C93.9321 13.4235 94.293 13.3483 94.6575 13.3514C96.1926 13.3514 97.1187 14.4 97.1187 16.1322V16.512H93.2229V16.573C93.2059 16.7754 93.2313 16.9792 93.2976 17.1712C93.3639 17.3632 93.4697 17.5393 93.608 17.688C93.7463 17.8368 93.9142 17.9551 94.1009 18.0352C94.2877 18.1153 94.4891 18.1555 94.6922 18.1532C94.9527 18.1845 95.2165 18.1376 95.4503 18.0185C95.684 17.8995 95.877 17.7136 96.0048 17.4845L97.0529 17.4846ZM93.2229 15.7069H96.0095C96.0233 15.5218 95.9981 15.3358 95.9357 15.161C95.8732 14.9862 95.7749 14.8263 95.647 14.6918C95.5191 14.5572 95.3645 14.4508 95.193 14.3796C95.0216 14.3083 94.8371 14.2737 94.6515 14.278C94.4632 14.2756 94.2763 14.3109 94.1019 14.3819C93.9274 14.4529 93.769 14.5581 93.6358 14.6913C93.5027 14.8244 93.3976 14.9829 93.3267 15.1573C93.2557 15.3318 93.2205 15.5186 93.2229 15.7069H93.2229Z" fill="white"/>
<path d="M98.5809 13.4579H99.6291V14.3037H99.7105C99.8278 14.0101 100.035 13.7612 100.303 13.5928C100.571 13.4244 100.885 13.3452 101.2 13.3664C101.363 13.3642 101.526 13.3795 101.686 13.4119V14.4862C101.486 14.4435 101.282 14.4215 101.078 14.4204C100.899 14.4043 100.718 14.4259 100.547 14.4838C100.376 14.5418 100.219 14.6348 100.087 14.757C99.9541 14.8791 99.8485 15.0276 99.7766 15.193C99.7048 15.3583 99.6684 15.5369 99.6698 15.7172V18.9741H98.5809V13.4579Z" fill="white"/>
<path d="M105.609 16.2137C105.609 14.4707 106.505 13.3665 107.899 13.3665C108.244 13.3506 108.586 13.4332 108.886 13.6045C109.185 13.7759 109.43 14.029 109.591 14.3342H109.672V11.3047H110.761V18.9741H109.718V18.1026H109.632C109.458 18.4058 109.205 18.6557 108.9 18.8254C108.594 18.995 108.248 19.0779 107.899 19.065C106.496 19.065 105.609 17.9608 105.609 16.2137ZM106.734 16.2137C106.734 17.3836 107.285 18.0876 108.208 18.0876C109.126 18.0876 109.693 17.3735 109.693 16.2184C109.693 15.0688 109.12 14.3445 108.208 14.3445C107.291 14.3445 106.734 15.0533 106.734 16.2137H106.734Z" fill="white"/>
<path d="M112.233 17.4142C112.233 16.4212 112.972 15.8488 114.285 15.7675L115.779 15.6813V15.2052C115.779 14.6226 115.394 14.2936 114.65 14.2936C114.042 14.2936 113.621 14.5167 113.5 14.9067H112.446C112.557 13.9593 113.449 13.3516 114.7 13.3516C116.083 13.3516 116.864 14.04 116.864 15.2052V18.9741H115.815V18.1989H115.729C115.554 18.477 115.309 18.7037 115.018 18.8558C114.727 19.008 114.4 19.0802 114.072 19.065C113.84 19.0891 113.606 19.0644 113.385 18.9925C113.163 18.9206 112.959 18.8031 112.786 18.6475C112.613 18.492 112.474 18.3019 112.379 18.0894C112.284 17.877 112.234 17.647 112.233 17.4142ZM115.779 16.9428V16.4817L114.432 16.5678C113.672 16.6186 113.328 16.877 113.328 17.3633C113.328 17.8598 113.759 18.1487 114.351 18.1487C114.524 18.1662 114.7 18.1487 114.866 18.0971C115.033 18.0456 115.188 17.961 115.321 17.8485C115.454 17.736 115.563 17.5979 115.642 17.4423C115.721 17.2867 115.768 17.1168 115.779 16.9428V16.9428Z" fill="white"/>
<path d="M118.569 13.4579H119.617V14.3341H119.698C119.836 14.0194 120.069 13.7556 120.364 13.5794C120.659 13.4033 121.002 13.3235 121.345 13.3514C121.613 13.3312 121.882 13.3717 122.133 13.4698C122.384 13.5679 122.609 13.7212 122.793 13.9182C122.976 14.1152 123.113 14.351 123.193 14.608C123.273 14.865 123.294 15.1368 123.254 15.403V18.9739H122.165V15.6764C122.165 14.7899 121.78 14.3491 120.975 14.3491C120.793 14.3406 120.611 14.3716 120.441 14.44C120.272 14.5084 120.12 14.6126 119.995 14.7453C119.87 14.8781 119.775 15.0363 119.717 15.2092C119.658 15.3821 119.638 15.5655 119.657 15.7469V18.9739H118.569V13.4579Z" fill="white"/>
<path d="M126.955 13.3516C128.196 13.3516 129.007 13.9288 129.113 14.9014H128.069C127.968 14.4964 127.572 14.238 126.955 14.238C126.347 14.238 125.885 14.5263 125.885 14.957C125.885 15.2865 126.164 15.4941 126.762 15.6311L127.679 15.8434C128.728 16.0869 129.22 16.5379 129.22 17.3484C129.22 18.3868 128.252 19.0806 126.935 19.0806C125.622 19.0806 124.766 18.4878 124.67 17.5105H125.76C125.854 17.7431 126.023 17.9374 126.241 18.0623C126.458 18.1871 126.711 18.2352 126.96 18.1989C127.638 18.1989 128.12 17.8951 128.12 17.4542C128.12 17.1252 127.862 16.9123 127.309 16.7807L126.347 16.5576C125.298 16.3094 124.812 15.8386 124.812 15.018C124.812 14.04 125.708 13.3516 126.955 13.3516Z" fill="white"/>
<path d="M43.1257 23.0964H45.4039V38.309H43.1257V23.0964Z" fill="white"/>
<path d="M48.1487 28.6628L49.3931 23.0964H51.6066L50.099 28.6628H48.1487Z" fill="white"/>
<path d="M60.2154 34.1974H54.416L53.0232 38.309H50.5668L56.0599 23.0964H58.6121L64.1053 38.309H61.607L60.2154 34.1974ZM55.0166 32.3001H59.6136L57.3474 25.6266H57.284L55.0166 32.3001Z" fill="white"/>
<path d="M75.9675 32.7643C75.9675 36.2108 74.1224 38.4252 71.3382 38.4252C70.6329 38.462 69.9314 38.2996 69.3142 37.9564C68.6969 37.6133 68.1888 37.1032 67.848 36.4848H67.7953V41.9781H65.5183V27.2177H67.7223V29.0624H67.7642C68.1206 28.4469 68.6374 27.9395 69.2593 27.5942C69.8813 27.249 70.5852 27.0787 71.2962 27.1017C74.1117 27.1017 75.9675 29.3268 75.9675 32.7643ZM73.6271 32.7643C73.6271 30.5183 72.4665 29.0421 70.6956 29.0421C68.9559 29.0421 67.7857 30.5494 67.7857 32.7643C67.7857 34.999 68.9559 36.4956 70.6956 36.4956C72.4665 36.4955 73.6271 35.0301 73.6271 32.7643Z" fill="white"/>
<path d="M88.176 32.7643C88.176 36.2108 86.331 38.4252 83.5468 38.4252C82.8415 38.462 82.14 38.2996 81.5228 37.9564C80.9055 37.6133 80.3974 37.1032 80.0565 36.4848H80.0039V41.9781H77.7275V27.2177H79.9309V29.0624H79.9728C80.3293 28.4469 80.846 27.9395 81.468 27.5942C82.0899 27.249 82.7939 27.0787 83.5049 27.1017C86.3203 27.1017 88.176 29.3268 88.176 32.7643ZM85.8357 32.7643C85.8357 30.5183 84.6751 29.0421 82.9042 29.0421C81.1645 29.0421 79.9943 30.5494 79.9943 32.7643C79.9943 34.999 81.1645 36.4956 82.9042 36.4956C84.6751 36.4955 85.8357 35.0301 85.8357 32.7643Z" fill="white"/>
<path d="M96.2452 34.0705C96.414 35.5791 97.8797 36.5695 99.8826 36.5695C101.802 36.5695 103.183 35.579 103.183 34.2188C103.183 33.0381 102.35 32.3311 100.378 31.8466L98.4061 31.3711C95.6123 30.6964 94.3152 29.3901 94.3152 27.2702C94.3152 24.6456 96.603 22.8428 99.8515 22.8428C103.066 22.8428 105.27 24.6456 105.345 27.2702H103.046C102.909 25.7521 101.653 24.8358 99.8192 24.8358C97.9849 24.8358 96.7298 25.7629 96.7298 27.1123C96.7298 28.1878 97.5315 28.8206 99.4926 29.3051L101.169 29.7166C104.291 30.4547 105.588 31.709 105.588 33.9341C105.588 36.7801 103.32 38.5626 99.7139 38.5626C96.3397 38.5626 94.0616 36.822 93.9144 34.0705L96.2452 34.0705Z" fill="white"/>
<path d="M110.503 24.593V27.2177H112.612V29.0205H110.503V35.1353C110.503 36.0852 110.925 36.5278 111.853 36.5278C112.103 36.5234 112.353 36.5059 112.602 36.4751V38.2672C112.185 38.3451 111.761 38.3803 111.337 38.3724C109.091 38.3724 108.215 37.5291 108.215 35.3781V29.0205H106.602V27.2177H108.215V24.593H110.503Z" fill="white"/>
<path d="M113.833 32.7643C113.833 29.2741 115.888 27.0813 119.094 27.0813C122.31 27.0813 124.356 29.274 124.356 32.7643C124.356 36.2634 122.321 38.4466 119.094 38.4466C115.868 38.4466 113.833 36.2634 113.833 32.7643ZM122.036 32.7643C122.036 30.3699 120.939 28.9571 119.094 28.9571C117.249 28.9571 116.153 30.3807 116.153 32.7643C116.153 35.1676 117.249 36.5697 119.094 36.5697C120.939 36.5697 122.036 35.1676 122.036 32.7643H122.036Z" fill="white"/>
<path d="M126.233 27.2176H128.405V29.1053H128.458C128.605 28.5157 128.95 27.9947 129.436 27.6298C129.922 27.2649 130.519 27.0784 131.126 27.1015C131.388 27.1006 131.65 27.1291 131.906 27.1865V29.3158C131.575 29.2146 131.229 29.1682 130.883 29.1783C130.552 29.1649 130.222 29.2232 129.916 29.3493C129.61 29.4754 129.335 29.6662 129.109 29.9087C128.884 30.1512 128.714 30.4395 128.61 30.754C128.507 31.0685 128.473 31.4016 128.51 31.7306V38.3089H126.233L126.233 27.2176Z" fill="white"/>
<path d="M142.403 35.0516C142.097 37.0649 140.135 38.4466 137.626 38.4466C134.399 38.4466 132.396 36.2849 132.396 32.8169C132.396 29.3375 134.41 27.0813 137.531 27.0813C140.6 27.0813 142.53 29.1892 142.53 32.5525V33.3325H134.695V33.4701C134.659 33.8782 134.71 34.2894 134.845 34.6763C134.98 35.0632 135.196 35.417 135.478 35.7141C135.76 36.0113 136.102 36.2449 136.482 36.3997C136.861 36.5544 137.27 36.6266 137.679 36.6115C138.217 36.6619 138.757 36.5373 139.219 36.2563C139.68 35.9752 140.039 35.5527 140.241 35.0516L142.403 35.0516ZM134.706 31.7414H140.252C140.272 31.3744 140.216 31.007 140.088 30.6625C139.96 30.318 139.762 30.0036 139.506 29.7393C139.251 29.4749 138.944 29.2662 138.604 29.1262C138.264 28.9863 137.898 28.9181 137.531 28.926C137.16 28.9238 136.792 28.995 136.449 29.1356C136.106 29.2762 135.794 29.4834 135.531 29.7452C135.269 30.0069 135.061 30.3181 134.919 30.6607C134.777 31.0033 134.705 31.3706 134.706 31.7414Z" fill="white"/>
</g>
<defs>
<clipPath id="clip0">
<rect width="155" height="49" fill="white" transform="translate(0 0.9646)"/>
</clipPath>
</defs>
</svg>
