<svg width="155" height="48" viewBox="0 0 155 48" fill="none" xmlns="http://www.w3.org/2000/svg">
<g clip-path="url(#clip0)">
<path d="M149.259 0.9646H5.74074C2.57022 0.9646 0 3.59493 0 6.8396V42.0896C0 45.3343 2.57022 47.9646 5.74074 47.9646H149.259C152.43 47.9646 155 45.3343 155 42.0896V6.8396C155 3.59493 152.43 0.9646 149.259 0.9646Z" fill="black"/>
<path d="M149.259 1.9046C150.538 1.9046 151.765 2.42454 152.669 3.35003C153.573 4.27552 154.081 5.53076 154.081 6.8396V42.0896C154.081 43.3984 153.573 44.6537 152.669 45.5792C151.765 46.5047 150.538 47.0246 149.259 47.0246H5.74074C4.46181 47.0246 3.23526 46.5047 2.33091 45.5792C1.42657 44.6537 0.918519 43.3984 0.918519 42.0896V6.8396C0.918519 5.53076 1.42657 4.27552 2.33091 3.35003C3.23526 2.42454 4.46181 1.9046 5.74074 1.9046H149.259ZM149.259 0.9646H5.74074C4.2182 0.9646 2.75802 1.58357 1.68142 2.68535C0.604826 3.78712 0 5.28145 0 6.8396V42.0896C0 43.6477 0.604826 45.1421 1.68142 46.2439C2.75802 47.3456 4.2182 47.9646 5.74074 47.9646H149.259C150.782 47.9646 152.242 47.3456 153.319 46.2439C154.395 45.1421 155 43.6477 155 42.0896V6.8396C155 5.28145 154.395 3.78712 153.319 2.68535C152.242 1.58357 150.782 0.9646 149.259 0.9646Z" fill="#A6A6A6"/>
<path d="M78.2348 26.5208C77.2675 26.5231 76.3225 26.819 75.5194 27.3709C74.7164 27.9229 74.0912 28.7061 73.7232 29.6216C73.3551 30.5372 73.2605 31.5438 73.4515 32.5143C73.6424 33.4849 74.1103 34.3756 74.7959 35.074C75.4816 35.7724 76.3542 36.247 77.3034 36.4379C78.2526 36.6288 79.2358 36.5273 80.1287 36.1463C81.0215 35.7653 81.784 35.1219 82.3195 34.2974C82.8551 33.473 83.1397 32.5045 83.1374 31.5146C83.1468 30.8541 83.0262 30.1985 82.7829 29.5868C82.5395 28.975 82.1783 28.4197 81.7209 27.9537C81.2635 27.4878 80.7191 27.1208 80.1202 26.8746C79.5213 26.6285 78.8801 26.5081 78.2348 26.5208ZM78.2348 34.5461C77.6419 34.5885 77.0502 34.4474 76.5367 34.1411C76.0232 33.8349 75.6115 33.3776 75.3553 32.8287C75.0991 32.2799 75.0101 31.6648 75.1 31.0635C75.1899 30.4623 75.4545 29.9026 75.8593 29.4572C76.2641 29.0118 76.7905 28.7014 77.37 28.5662C77.9495 28.4311 78.5554 28.4775 79.1088 28.6994C79.6622 28.9213 80.1376 29.3084 80.4732 29.8105C80.8087 30.3125 80.9889 30.9063 80.9904 31.5146C81.0089 31.9 80.9518 32.2853 80.8225 32.6478C80.6931 33.0102 80.4942 33.3425 80.2374 33.6251C79.9806 33.9076 79.6711 34.1347 79.3271 34.2928C78.9832 34.451 78.6118 34.5371 78.2348 34.5461ZM67.5341 26.5208C66.5667 26.5231 65.6218 26.819 64.8187 27.3709C64.0156 27.9229 63.3905 28.7061 63.0224 29.6216C62.6543 30.5372 62.5598 31.5438 62.7507 32.5143C62.9417 33.4849 63.4095 34.3756 64.0952 35.074C64.7808 35.7724 65.6534 36.247 66.6026 36.4379C67.5519 36.6288 68.5351 36.5273 69.4279 36.1463C70.3208 35.7653 71.0832 35.1219 71.6188 34.2974C72.1543 33.473 72.439 32.5045 72.4367 31.5146C72.446 30.8541 72.3255 30.1985 72.0821 29.5868C71.8388 28.975 71.4776 28.4197 71.0202 27.9537C70.5627 27.4878 70.0184 27.1208 69.4195 26.8746C68.8206 26.6285 68.1794 26.5081 67.5341 26.5208ZM67.5341 34.5461C66.9412 34.5885 66.3495 34.4474 65.8359 34.1411C65.3224 33.8349 64.9108 33.3776 64.6546 32.8287C64.3983 32.2799 64.3094 31.6648 64.3993 31.0635C64.4892 30.4623 64.7537 29.9026 65.1585 29.4572C65.5634 29.0118 66.0898 28.7014 66.6693 28.5662C67.2488 28.4311 67.8546 28.4775 68.4081 28.6994C68.9615 28.9213 69.4369 29.3084 69.7724 29.8105C70.108 30.3125 70.2882 30.9063 70.2897 31.5146C70.3081 31.9 70.251 32.2853 70.1217 32.6478C69.9924 33.0102 69.7934 33.3425 69.5366 33.6251C69.2798 33.9076 68.9703 34.1347 68.6264 34.2928C68.2825 34.451 67.9111 34.5371 67.5341 34.5461ZM54.8126 28.0601V30.1751H59.7726C59.6948 31.1712 59.2902 32.1112 58.6245 32.8423C58.1269 33.3611 57.5285 33.7672 56.8679 34.0344C56.2073 34.3015 55.4993 34.4238 54.7897 34.3933C53.328 34.3933 51.9262 33.7991 50.8927 32.7414C49.8592 31.6837 49.2785 30.2491 49.2785 28.7533C49.2785 27.2575 49.8592 25.8229 50.8927 24.7652C51.9262 23.7075 53.328 23.1133 54.7897 23.1133C56.1909 23.092 57.5439 23.6366 58.5556 24.6291L60.0137 23.1368C59.3294 22.4442 58.5169 21.8982 57.6238 21.531C56.7307 21.1638 55.775 20.9827 54.8126 20.9983C53.7919 20.9577 52.7737 21.1283 51.819 21.5C50.8642 21.8717 49.9927 22.4368 49.2564 23.1615C48.5202 23.8862 47.9346 24.7555 47.5345 25.7173C47.1344 26.6792 46.9282 27.7138 46.9282 28.7592C46.9282 29.8046 47.1344 30.8392 47.5345 31.801C47.9346 32.7629 48.5202 33.6322 49.2564 34.3569C49.9927 35.0815 50.8642 35.6467 51.819 36.0184C52.7737 36.3901 53.7919 36.5607 54.8126 36.5201C55.7948 36.5602 56.7741 36.3873 57.6863 36.0126C58.5985 35.638 59.423 35.0701 60.1056 34.3463C61.3113 32.9908 61.9537 31.2081 61.8967 29.3761C61.9008 28.9351 61.8662 28.4947 61.7934 28.0601H54.8126ZM106.835 29.7051C106.536 28.8035 105.976 28.0163 105.23 27.4477C104.483 26.8791 103.586 26.5558 102.656 26.5208C102.028 26.5196 101.406 26.6501 100.83 26.9045C100.253 27.1588 99.7331 27.5315 99.3026 27.9996C98.8722 28.4676 98.5401 29.021 98.327 29.6256C98.1138 30.2302 98.0241 30.8731 98.0634 31.5146C98.0535 32.5872 98.3831 33.6342 99.0027 34.4994C99.6223 35.3645 100.499 36.0013 101.501 36.3146C102.504 36.6279 103.578 36.6009 104.564 36.2377C105.551 35.8745 106.396 35.1945 106.973 34.2993L105.308 33.1243C105.06 33.5476 104.708 33.8972 104.287 34.1384C103.866 34.3795 103.391 34.5039 102.909 34.4991C102.411 34.5201 101.919 34.3866 101.497 34.116C101.074 33.8455 100.742 33.4507 100.543 32.9833L107.076 30.2221L106.835 29.7051ZM100.176 31.3736C100.153 31.0086 100.201 30.6425 100.317 30.2968C100.434 29.9511 100.617 29.6327 100.856 29.3602C101.094 29.0878 101.383 28.8667 101.706 28.7101C102.029 28.5534 102.379 28.4642 102.736 28.4478C103.106 28.4247 103.475 28.5138 103.795 28.704C104.116 28.8942 104.375 29.1771 104.539 29.5171L100.176 31.3736ZM94.8715 36.2146H97.0185V21.5271H94.8715V36.2146ZM91.3582 27.6371H91.2778C90.9571 27.2632 90.5612 26.9647 90.1173 26.7619C89.6735 26.5591 89.192 26.4569 88.706 26.4621C87.4512 26.5243 86.268 27.0783 85.4016 28.009C84.5351 28.9398 84.0517 30.1761 84.0517 31.4617C84.0517 32.7473 84.5351 33.9835 85.4016 34.9143C86.268 35.8451 87.4512 36.399 88.706 36.4613C89.1927 36.4713 89.6756 36.3712 90.1202 36.168C90.5648 35.9649 90.9601 35.6639 91.2778 35.2863H91.3582V36.0031C91.3582 37.9183 90.3593 38.9406 88.7519 38.9406C88.2149 38.9285 87.6936 38.7534 87.2541 38.4375C86.8145 38.1216 86.4767 37.6791 86.2834 37.1663L84.4234 37.9536C84.7672 38.8375 85.3651 39.5937 86.138 40.1224C86.9109 40.6511 87.8223 40.9273 88.7519 40.9146C91.2663 40.9146 93.3445 39.3988 93.3445 35.7093V26.8146H91.3582V27.6371ZM88.8897 34.5461C88.1374 34.4981 87.4313 34.1584 86.9152 33.5963C86.3991 33.0341 86.1118 32.2918 86.1118 31.5204C86.1118 30.7491 86.3991 30.0067 86.9152 29.4446C87.4313 28.8825 88.1374 28.5428 88.8897 28.4948C89.2573 28.511 89.6181 28.6028 89.9504 28.7646C90.2827 28.9265 90.5798 29.155 90.8241 29.4368C91.0683 29.7185 91.2546 30.0477 91.372 30.4046C91.4894 30.7616 91.5355 31.139 91.5074 31.5146C91.5388 31.8914 91.4951 32.2708 91.379 32.6298C91.263 32.9889 91.077 33.3201 90.8323 33.6035C90.5876 33.8868 90.2893 34.1165 89.9554 34.2785C89.6215 34.4405 89.2589 34.5315 88.8897 34.5461ZM116.893 21.5271H111.749V36.2146H113.896V30.6451H116.893C117.505 30.69 118.119 30.6055 118.698 30.3968C119.276 30.1881 119.807 29.8596 120.256 29.4319C120.705 29.0041 121.063 28.4863 121.308 27.9106C121.553 27.335 121.679 26.7139 121.679 26.0861C121.679 25.4582 121.553 24.8371 121.308 24.2615C121.063 23.6858 120.705 23.168 120.256 22.7403C119.807 22.3125 119.276 21.984 118.698 21.7753C118.119 21.5666 117.505 21.4821 116.893 21.5271ZM116.893 28.5771H113.896V23.5716H116.939C117.262 23.5716 117.581 23.6366 117.879 23.763C118.177 23.8893 118.448 24.0745 118.676 24.308C118.904 24.5415 119.085 24.8187 119.209 25.1238C119.332 25.4289 119.396 25.7558 119.396 26.0861C119.396 26.4163 119.332 26.7432 119.209 27.0483C119.085 27.3534 118.904 27.6306 118.676 27.8641C118.448 28.0976 118.177 28.2828 117.879 28.4092C117.581 28.5355 117.262 28.6006 116.939 28.6006L116.893 28.5771ZM130.143 26.4738C129.361 26.4245 128.582 26.6108 127.902 27.0096C127.223 27.4085 126.672 28.0025 126.319 28.7181L128.214 29.5288C128.405 29.1756 128.692 28.8867 129.041 28.6969C129.389 28.5072 129.784 28.4248 130.177 28.4596C130.45 28.427 130.726 28.4503 130.989 28.5281C131.253 28.6059 131.499 28.7367 131.713 28.9128C131.926 29.0889 132.104 29.3068 132.234 29.5537C132.365 29.8007 132.446 30.0719 132.473 30.3513V30.4923C131.783 30.1209 131.014 29.9273 130.234 29.9283C128.191 29.9283 126.101 31.1033 126.101 33.2418C126.121 33.6964 126.231 34.1421 126.422 34.5526C126.614 34.9631 126.885 35.3299 127.218 35.6313C127.551 35.9327 127.94 36.1625 128.361 36.3071C128.783 36.4517 129.229 36.5082 129.672 36.4731C130.211 36.5036 130.748 36.3869 131.228 36.135C131.708 35.8831 132.114 35.505 132.404 35.0396H132.473V36.2146H134.54V30.5628C134.54 27.9896 132.634 26.4973 130.189 26.4973L130.143 26.4738ZM129.879 34.5226C129.178 34.5226 128.202 34.1583 128.202 33.2771C128.202 32.1021 129.419 31.7026 130.499 31.7026C131.181 31.6853 131.855 31.8558 132.45 32.1961C132.378 32.8342 132.083 33.4239 131.618 33.856C131.154 34.2881 130.552 34.5333 129.924 34.5461L129.879 34.5226ZM142.072 26.8146L139.615 33.1831H139.546L136.997 26.8146H134.701L138.524 35.7211L136.343 40.6678H138.582L144.46 26.8146H142.072ZM122.783 36.2146H124.919V21.5271H122.783V36.2146Z" fill="white"/>
<path d="M11.9867 9.8242C11.6084 10.282 11.4153 10.8705 11.4471 11.4692V37.4602C11.408 38.0599 11.602 38.6511 11.9867 39.1052L12.0671 39.1992L26.2926 24.6409V24.2884L12.0671 9.74194L11.9867 9.8242Z" fill="url(#paint0_linear)"/>
<path d="M31 29.4935L26.2926 24.6408V24.2883L31 19.4355L31.1033 19.506L36.7407 22.7725C38.3482 23.7008 38.3482 25.2283 36.7407 26.1683L31.1263 29.4348L31 29.4935Z" fill="url(#paint1_linear)"/>
<path d="M31.1378 29.4231L26.2926 24.4646L11.9867 39.1051C12.3111 39.4006 12.7264 39.5707 13.1605 39.5857C13.5946 39.6007 14.0202 39.4598 14.3634 39.1873L31.1378 29.4231Z" fill="url(#paint2_linear)"/>
<path d="M31.1378 19.5062L14.3634 9.7537C14.0224 9.47747 13.5972 9.33312 13.1625 9.34601C12.7278 9.3589 12.3115 9.52822 11.9867 9.8242L26.2926 24.4647L31.1378 19.5062Z" fill="url(#paint3_linear)"/>
<path opacity="0.2" d="M31 29.3174L14.3634 39.0111C14.0326 39.2666 13.6296 39.4048 13.2152 39.4048C12.8009 39.4048 12.3978 39.2666 12.0671 39.0111L11.9867 39.0934L12.0671 39.1874C12.3978 39.4428 12.8009 39.581 13.2152 39.581C13.6296 39.581 14.0326 39.4428 14.3634 39.1874L31.1378 29.4231L31 29.3174Z" fill="black"/>
<path opacity="0.12" d="M11.9866 38.9407C11.6178 38.4746 11.4371 37.8819 11.4814 37.2839V37.4602C11.4424 38.0599 11.6363 38.6511 12.0211 39.1052L12.1014 39.0229L11.9866 38.9407Z" fill="black"/>
<path opacity="0.12" d="M36.7407 25.9921L31 29.3174L31.1033 29.4231L36.7407 26.1566C37.0735 26.0126 37.3622 25.7794 37.5764 25.4817C37.7905 25.1839 37.9223 24.8326 37.9578 24.4646C37.886 24.799 37.7385 25.1114 37.5271 25.3767C37.3157 25.642 37.0463 25.8528 36.7407 25.9921Z" fill="black"/>
<path opacity="0.25" d="M14.3633 9.91815L36.7407 22.9371C37.0463 23.0764 37.3157 23.2872 37.5271 23.5525C37.7384 23.8178 37.886 24.1303 37.9578 24.4646C37.9223 24.0967 37.7905 23.7453 37.5763 23.4476C37.3622 23.1498 37.0735 22.9166 36.7407 22.7726L14.3633 9.75365C12.7674 8.81365 11.447 9.58915 11.447 11.4691V11.6454C11.4815 9.7654 12.7674 8.9899 14.3633 9.91815Z" fill="white"/>
<path d="M47.3955 16.2397V9.18966H49.4966C49.9639 9.16654 50.4309 9.24109 50.8692 9.40876C51.3074 9.57644 51.7076 9.83372 52.0455 10.1649C52.362 10.5037 52.6093 10.9037 52.773 11.3415C52.9366 11.7794 53.0133 12.2462 52.9985 12.7147C53.0133 13.1832 52.9366 13.65 52.773 14.0878C52.6093 14.5256 52.362 14.9256 52.0455 15.2644C51.7076 15.5956 51.3074 15.8529 50.8692 16.0206C50.4309 16.1882 49.9639 16.2628 49.4966 16.2397H47.3955ZM48.2796 15.3702H49.4966C49.8453 15.4026 50.1967 15.3563 50.526 15.2343C50.8552 15.1123 51.1542 14.9178 51.4018 14.6644C51.6494 14.411 51.8395 14.105 51.9587 13.7681C52.0778 13.4311 52.1232 13.0715 52.0914 12.7147C52.1211 12.3583 52.0744 11.9995 51.9545 11.6636C51.8346 11.3276 51.6444 11.0225 51.3973 10.7696C51.1501 10.5166 50.852 10.322 50.5237 10.1993C50.1954 10.0766 49.8449 10.0288 49.4966 10.0592H48.2796V15.3702Z" fill="white" stroke="white" stroke-width="0.2" stroke-miterlimit="10"/>
<path d="M54.2385 16.2397V9.1897H55.1111V16.2397H54.2385Z" fill="white" stroke="white" stroke-width="0.2" stroke-miterlimit="10"/>
<path d="M58.636 16.3924C58.1121 16.3837 57.6034 16.2115 57.1778 15.8989C56.7023 15.5663 56.3663 15.0631 56.2363 14.4889L57.04 14.1481C57.1385 14.5306 57.3464 14.8743 57.6371 15.1351C57.9113 15.3884 58.2665 15.5305 58.636 15.5346C58.9908 15.5468 59.339 15.4349 59.6234 15.2174C59.7551 15.1249 59.8619 15 59.9341 14.8543C60.0064 14.7085 60.0416 14.5465 60.0367 14.3831C60.0459 14.2075 60.013 14.0322 59.941 13.8725C59.8689 13.7128 59.7599 13.5734 59.6234 13.4666C59.2304 13.1948 58.7958 12.9923 58.3374 12.8674C57.8208 12.7316 57.344 12.4695 56.9482 12.1036C56.7949 11.9515 56.6739 11.7686 56.5929 11.5664C56.5119 11.3642 56.4726 11.1471 56.4774 10.9286C56.4777 10.6775 56.53 10.4293 56.6309 10.2004C56.7319 9.97153 56.8791 9.76718 57.063 9.60088C57.4788 9.26193 57.99 9.06869 58.5213 9.04965C59.0526 9.03061 59.5758 9.18678 60.0137 9.49513C60.3444 9.7365 60.5932 10.0774 60.7256 10.4704L59.9219 10.8111C59.8457 10.5673 59.6972 10.3538 59.4971 10.2001C59.2469 9.99578 58.9327 9.89139 58.613 9.90638C58.2981 9.90113 57.9907 10.0046 57.7404 10.2001C57.6289 10.284 57.5384 10.3938 57.4766 10.5204C57.4147 10.6471 57.3831 10.787 57.3845 10.9286C57.3829 11.0578 57.4125 11.1855 57.4706 11.3002C57.5286 11.415 57.6134 11.5133 57.7174 11.5866C58.0115 11.8092 58.342 11.9763 58.6934 12.0801C58.9824 12.1687 59.2661 12.2746 59.543 12.3974C59.7871 12.512 60.0182 12.6539 60.2319 12.8204C60.4587 12.9864 60.6405 13.2088 60.76 13.4666C60.8891 13.7495 60.952 14.0593 60.9437 14.3714C60.9489 14.6896 60.878 15.0042 60.7371 15.2879C60.6108 15.5451 60.4207 15.7639 60.186 15.9224C59.9616 16.0832 59.7135 16.2062 59.4511 16.2866C59.186 16.3627 58.9113 16.3983 58.636 16.3924Z" fill="white" stroke="white" stroke-width="0.2" stroke-miterlimit="10"/>
<path d="M63.1481 16.2395H62.264V9.18953H64.5603C65.1225 9.17966 65.6662 9.39466 66.0759 9.78879C66.2788 9.97921 66.4408 10.2107 66.5516 10.4686C66.6624 10.7265 66.7196 11.0052 66.7196 11.2869C66.7196 11.5686 66.6624 11.8473 66.5516 12.1052C66.4408 12.3631 66.2788 12.5946 66.0759 12.785C65.6662 13.1792 65.1225 13.3942 64.5603 13.3843H63.1481V16.2395ZM63.1481 12.5148H64.6407C64.8058 12.5209 64.9703 12.4905 65.1229 12.4256C65.2754 12.3607 65.4125 12.2629 65.5248 12.1388C65.6377 12.029 65.7276 11.8969 65.789 11.7504C65.8505 11.604 65.8821 11.4463 65.8821 11.2869C65.8821 11.1275 65.8505 10.9698 65.789 10.8234C65.7276 10.6769 65.6377 10.5448 65.5248 10.435C65.4125 10.311 65.2754 10.2131 65.1229 10.1482C64.9703 10.0833 64.8058 10.0529 64.6407 10.059H63.1481V12.5148Z" fill="white" stroke="white" stroke-width="0.2" stroke-miterlimit="10"/>
<path d="M73.4815 15.323C73.1499 15.6627 72.7561 15.9321 72.3227 16.1159C71.8893 16.2998 71.4247 16.3944 70.9556 16.3944C70.4864 16.3944 70.0219 16.2998 69.5884 16.1159C69.155 15.9321 68.7613 15.6627 68.4297 15.323C67.7806 14.6169 67.4192 13.684 67.4192 12.7145C67.4192 11.7451 67.7806 10.8121 68.4297 10.106C68.7613 9.76638 69.155 9.49695 69.5884 9.31312C70.0219 9.12929 70.4864 9.03467 70.9556 9.03467C71.4247 9.03467 71.8893 9.12929 72.3227 9.31312C72.7561 9.49695 73.1499 9.76638 73.4815 10.106C73.8091 10.4511 74.0661 10.8595 74.2376 11.3073C74.4091 11.7552 74.4917 12.2336 74.4804 12.7145C74.497 13.1961 74.4169 13.676 74.2451 14.1247C74.0733 14.5734 73.8134 14.9812 73.4815 15.323ZM69.0841 14.7355C69.326 14.9927 69.6169 15.1963 69.9389 15.3337C70.2608 15.4711 70.6068 15.5395 70.9556 15.5345C71.3046 15.5416 71.6513 15.4742 71.9735 15.3367C72.2957 15.1991 72.5864 14.9944 72.8271 14.7355C73.3225 14.1846 73.5975 13.4632 73.5975 12.7145C73.5975 11.9658 73.3225 11.2445 72.8271 10.6935C72.5864 10.4347 72.2957 10.23 71.9735 10.0924C71.6513 9.95483 71.3046 9.88745 70.9556 9.89453C70.6068 9.88958 70.2608 9.95793 69.9389 10.0954C69.6169 10.2328 69.326 10.4364 69.0841 10.6935C68.596 11.2481 68.3258 11.9681 68.3258 12.7145C68.3258 13.4609 68.596 14.1809 69.0841 14.7355Z" fill="white" stroke="white" stroke-width="0.2" stroke-miterlimit="10"/>
<path d="M75.7778 16.2397V9.1897H76.8571L80.1982 14.6769V13.3139V9.1897H81.0938V16.2397H80.1638L76.7193 10.4939V11.8452V16.2397H75.7778Z" fill="white" stroke="white" stroke-width="0.2" stroke-miterlimit="10"/>
<path d="M82.6666 16.2397V9.1897H83.5507V16.2397H82.6666Z" fill="white" stroke="white" stroke-width="0.2" stroke-miterlimit="10"/>
<path d="M85.0663 16.2396V9.18956H87.5578C88.0743 9.18425 88.574 9.37708 88.9585 9.73006C89.1504 9.90045 89.3033 10.1119 89.4064 10.3495C89.5096 10.587 89.5605 10.8449 89.5555 11.1048C89.5583 11.4213 89.4705 11.7318 89.3029 11.9978C89.1335 12.2501 88.899 12.4494 88.6255 12.5736C88.957 12.6896 89.2483 12.9019 89.4637 13.1846C89.6747 13.4725 89.7877 13.8234 89.7852 14.1833C89.791 14.4542 89.7385 14.7231 89.6314 14.9708C89.5242 15.2186 89.365 15.4391 89.1652 15.6168C88.7667 15.9963 88.2398 16.2027 87.6955 16.1926L85.0663 16.2396ZM85.9504 12.2093H87.5578C87.7082 12.2182 87.8586 12.1922 87.9978 12.1332C88.1369 12.0742 88.2613 11.9837 88.3615 11.8686C88.5562 11.6733 88.6676 11.4072 88.6715 11.1283C88.6823 10.8485 88.5878 10.5751 88.4074 10.3646C88.3109 10.255 88.1918 10.1686 88.0588 10.1118C87.9258 10.0549 87.7821 10.0289 87.6381 10.0356H85.9504V12.2093ZM85.9504 15.3701H87.7415C87.897 15.3754 88.0517 15.3455 88.1946 15.2825C88.3375 15.2196 88.4651 15.1251 88.5681 15.0058C88.7664 14.7891 88.8771 14.5037 88.8781 14.2068C88.8712 13.9124 88.7564 13.6315 88.5566 13.4196C88.446 13.3006 88.3121 13.2068 88.1638 13.144C88.0155 13.0813 87.856 13.0511 87.6955 13.0553H85.9504V15.3701Z" fill="white" stroke="white" stroke-width="0.2" stroke-miterlimit="10"/>
<path d="M90.9792 16.2397V9.1897H91.8518V15.3702H94.837V16.2397H90.9792Z" fill="white" stroke="white" stroke-width="0.2" stroke-miterlimit="10"/>
<path d="M99.9807 10.0592H96.8462V12.2917H99.6707V13.1377H96.8462V15.3702H99.9807V16.2397H95.9622V9.1897H99.9807V10.0592Z" fill="white" stroke="white" stroke-width="0.2" stroke-miterlimit="10"/>
<path d="M105.331 16.3924C104.804 16.3824 104.292 16.2105 103.862 15.8989C103.39 15.5642 103.059 15.0612 102.932 14.4889L103.735 14.1481C103.834 14.5306 104.042 14.8743 104.332 15.1351C104.607 15.3884 104.962 15.5305 105.331 15.5346C105.686 15.545 106.033 15.4333 106.319 15.2174C106.45 15.1249 106.557 15 106.629 14.8543C106.702 14.7085 106.737 14.5465 106.732 14.3831C106.741 14.2075 106.708 14.0322 106.636 13.8725C106.564 13.7128 106.455 13.5734 106.319 13.4666C105.921 13.1952 105.483 12.9927 105.021 12.8674C104.508 12.7316 104.035 12.4694 103.643 12.1036C103.488 11.9533 103.365 11.7707 103.284 11.5681C103.203 11.3655 103.165 11.1475 103.173 10.9286C103.173 10.6775 103.225 10.4293 103.326 10.2004C103.427 9.97153 103.574 9.76718 103.758 9.60088C104.174 9.26193 104.685 9.06869 105.216 9.04965C105.748 9.03061 106.271 9.18678 106.709 9.49513C107.04 9.7365 107.288 10.0774 107.421 10.4704L106.617 10.8111C106.541 10.5638 106.388 10.349 106.181 10.2001C105.936 9.99461 105.625 9.88988 105.308 9.90638C104.993 9.90113 104.686 10.0046 104.436 10.2001C104.323 10.2834 104.23 10.3928 104.167 10.5193C104.103 10.6459 104.069 10.7862 104.068 10.9286C104.07 11.0573 104.1 11.1839 104.158 11.2982C104.216 11.4125 104.299 11.5113 104.401 11.5866C104.698 11.8044 105.028 11.9711 105.377 12.0801C105.67 12.1669 105.958 12.2729 106.238 12.3974C106.481 12.5147 106.712 12.6564 106.927 12.8204C107.154 12.9864 107.336 13.2088 107.455 13.4666C107.579 13.7514 107.641 14.0598 107.639 14.3714C107.644 14.6896 107.573 15.0042 107.432 15.2879C107.306 15.5451 107.116 15.7639 106.881 15.9224C106.657 16.0832 106.409 16.2062 106.146 16.2866C105.881 16.3627 105.606 16.3983 105.331 16.3924Z" fill="white" stroke="white" stroke-width="0.2" stroke-miterlimit="10"/>
<path d="M111.301 16.3924C110.958 16.4074 110.615 16.347 110.296 16.2152C109.978 16.0835 109.69 15.8835 109.453 15.6287C108.971 15.0786 108.72 14.3572 108.753 13.6194V9.1897H109.637V13.6547C109.613 14.1466 109.764 14.6305 110.061 15.0177C110.217 15.1932 110.41 15.3308 110.624 15.4203C110.839 15.5098 111.07 15.5489 111.301 15.5347C111.526 15.5537 111.751 15.5214 111.962 15.4401C112.172 15.3588 112.362 15.2306 112.519 15.0647C112.82 14.6792 112.975 14.195 112.955 13.7017V9.1897H113.839V13.6194C113.873 14.3554 113.626 15.0762 113.15 15.6287C112.914 15.8854 112.627 16.0866 112.308 16.2185C111.989 16.3504 111.645 16.4097 111.301 16.3924Z" fill="white" stroke="white" stroke-width="0.2" stroke-miterlimit="10"/>
<path d="M115.274 16.2395V9.18953H117.57C118.133 9.17966 118.676 9.39466 119.086 9.78879C119.295 9.97556 119.461 10.2072 119.572 10.4672C119.683 10.7272 119.737 11.0091 119.729 11.2928C119.729 11.771 119.562 12.2335 119.258 12.597C118.965 12.9587 118.56 13.2074 118.11 13.302L120.039 16.2395H118.994L117.111 13.3843H116.135V16.2395H115.274ZM116.158 12.5383H117.582C117.917 12.5453 118.242 12.4189 118.489 12.1858C118.611 12.0733 118.708 11.9354 118.773 11.7813C118.838 11.6273 118.871 11.4607 118.868 11.2928C118.865 10.9745 118.746 10.6687 118.535 10.435C118.421 10.3094 118.282 10.2107 118.128 10.1457C117.973 10.0808 117.806 10.0512 117.639 10.059H116.158V12.5383Z" fill="white" stroke="white" stroke-width="0.2" stroke-miterlimit="10"/>
</g>
<defs>
<linearGradient id="paint0_linear" x1="25.0297" y1="11.1989" x2="5.31844" y2="30.4597" gradientUnits="userSpaceOnUse">
<stop stop-color="#00A0FF"/>
<stop offset="0.01" stop-color="#00A1FF"/>
<stop offset="0.26" stop-color="#00BEFF"/>
<stop offset="0.51" stop-color="#00D2FF"/>
<stop offset="0.76" stop-color="#00DFFF"/>
<stop offset="1" stop-color="#00E3FF"/>
</linearGradient>
<linearGradient id="paint1_linear" x1="38.8419" y1="24.4645" x2="11.0682" y2="24.4645" gradientUnits="userSpaceOnUse">
<stop stop-color="#FFE000"/>
<stop offset="0.41" stop-color="#FFBD00"/>
<stop offset="0.78" stop-color="#FFA500"/>
<stop offset="1" stop-color="#FF9C00"/>
</linearGradient>
<linearGradient id="paint2_linear" x1="28.5085" y1="27.1671" x2="1.77295" y2="53.2802" gradientUnits="userSpaceOnUse">
<stop stop-color="#FF3A44"/>
<stop offset="1" stop-color="#C31162"/>
</linearGradient>
<linearGradient id="paint3_linear" x1="8.38151" y1="1.1762" x2="20.3163" y2="12.8383" gradientUnits="userSpaceOnUse">
<stop stop-color="#32A071"/>
<stop offset="0.07" stop-color="#2DA771"/>
<stop offset="0.48" stop-color="#15CF74"/>
<stop offset="0.8" stop-color="#06E775"/>
<stop offset="1" stop-color="#00F076"/>
</linearGradient>
<clipPath id="clip0">
<rect width="155" height="47" fill="white" transform="translate(0 0.9646)"/>
</clipPath>
</defs>
</svg>
